<?xml version="1.0" standalone="no"?>
<!DOCTYPE svg PUBLIC "-//W3C//DTD SVG 1.1//EN" "http://www.w3.org/Graphics/SVG/1.1/DTD/svg11.dtd" >
<!--
2013-9-30: Created.
-->
<svg>
<metadata>
Created by iconfont
</metadata>
<defs>

<font id="iconfont" horiz-adv-x="1024" >
  <font-face
    font-family="iconfont"
    font-weight="500"
    font-stretch="normal"
    units-per-em="1024"
    ascent="896"
    descent="-128"
  />
    <missing-glyph />
    
    <glyph glyph-name="x" unicode="x" horiz-adv-x="1001"
d="M281 543q-27 -1 -53 -1h-83q-18 0 -36.5 -6t-32.5 -18.5t-23 -32t-9 -45.5v-76h912v41q0 16 -0.5 30t-0.5 18q0 13 -5 29t-17 29.5t-31.5 22.5t-49.5 9h-133v-97h-438v97zM955 310v-52q0 -23 0.5 -52t0.5 -58t-10.5 -47.5t-26 -30t-33 -16t-31.5 -4.5q-14 -1 -29.5 -0.5
t-29.5 0.5h-32l-45 128h-439l-44 -128h-29h-34q-20 0 -45 1q-25 0 -41 9.5t-25.5 23t-13.5 29.5t-4 30v167h911zM163 247q-12 0 -21 -8.5t-9 -21.5t9 -21.5t21 -8.5q13 0 22 8.5t9 21.5t-9 21.5t-22 8.5zM316 123q-8 -26 -14 -48q-5 -19 -10.5 -37t-7.5 -25t-3 -15t1 -14.5
t9.5 -10.5t21.5 -4h37h67h81h80h64h36q23 0 34 12t2 38q-5 13 -9.5 30.5t-9.5 34.5q-5 19 -11 39h-368zM336 498v228q0 11 2.5 23t10 21.5t20.5 15.5t34 6h188q31 0 51.5 -14.5t20.5 -52.5v-227h-327z" />
    

    
    <glyph glyph-name="gengduo" unicode="&#59010;" d="M753.600215 488.10547c43.464266 0 78.6991 35.811101 78.6991 79.989249 0 44.183309-35.234834 80.004731-78.6991 80.004731-43.476307 0-78.723182-35.821422-78.723182-80.004731C674.877033 523.91657 710.123908 488.10547 753.600215 488.10547zM753.600215 408.1059c-43.476307 0-78.723182-35.821422-78.723182-80.009891 0-44.190189 35.246875-79.99785 78.723182-79.99785 43.464266 0 78.6991 35.80594 78.6991 79.99785C832.299315 372.282758 797.064481 408.1059 753.600215 408.1059zM753.600215 168.093428c-43.476307 0-78.723182-35.814541-78.723182-79.99785 0-44.179868 35.246875-80.004731 78.723182-80.004731 43.464266 0 78.6991 35.826582 78.6991 80.004731C832.299315 132.278887 797.064481 168.093428 753.600215 168.093428z"  horiz-adv-x="1449" />

    
    <glyph glyph-name="iconset0123" unicode="&#58909;" d="M631.808 260.096 256 260.096c-13.312 0-21.504-8.192-21.504-21.504 0-13.312 8.192-21.504 21.504-21.504l375.808 0c13.312 0 21.504 8.192 21.504 21.504C648.192 251.904 640 260.096 631.808 260.096zM256 468.992l251.904 0c13.312 0 21.504 8.192 21.504 21.504s-8.192 21.504-21.504 21.504L256 512c-13.312 0-21.504-8.192-21.504-21.504S242.688 468.992 256 468.992zM234.496 362.496c0-13.312 8.192-21.504 21.504-21.504l499.712 0c13.312 0 21.504 8.192 21.504 21.504S768 384 755.712 384L256 384C242.688 384 234.496 375.808 234.496 362.496zM836.608 759.808l-102.4 0L734.208 819.2c0 12.288-8.192 21.504-21.504 21.504-13.312 0-21.504-8.192-21.504-21.504l0-63.488-43.008 0L648.192 819.2c0 12.288-8.192 21.504-21.504 21.504s-21.504-8.192-21.504-21.504l0-63.488L563.2 755.712 563.2 819.2c0 12.288-8.192 21.504-21.504 21.504s-21.504-8.192-21.504-21.504l0-63.488-43.008 0L477.184 819.2c0 12.288-8.192 21.504-21.504 21.504s-21.504-8.192-21.504-21.504l0-63.488-43.008 0L391.168 819.2c0 12.288-8.192 21.504-21.504 21.504C358.4 840.704 358.4 831.488 358.4 819.2l0-63.488-43.008 0L315.392 819.2c0 12.288-8.192 21.504-21.504 21.504-13.312 0-21.504-8.192-21.504-21.504l0-63.488-102.4 0c-21.504 0-43.008-17.408-43.008-43.008l0-750.592c0-21.504 17.408-43.008 43.008-43.008l665.6 0c21.504 0 43.008 17.408 43.008 43.008L878.592 716.8C878.592 738.304 862.208 759.808 836.608 759.808zM171.008-33.792 171.008 90.112l128-123.904L171.008-33.792zM836.608-33.792 358.4-33.792 171.008 153.6l0 563.2 102.4 0 0-64.512c0-13.312 8.192-21.504 21.504-21.504 13.312 0 21.504 8.192 21.504 21.504l0 64.512L358.4 716.8l0-64.512c0-13.312 8.192-21.504 21.504-21.504 13.312 0 21.504 8.192 21.504 21.504l0 64.512 43.008 0 0-64.512c0-13.312 8.192-21.504 21.504-21.504s21.504 8.192 21.504 21.504l0 64.512 43.008 0 0-64.512c0-13.312 8.192-21.504 21.504-21.504s21.504 8.192 21.504 21.504l0 64.512L614.4 716.8l0-64.512c0-13.312 8.192-21.504 21.504-21.504s21.504 8.192 21.504 21.504l0 64.512 43.008 0 0-64.512c0-13.312 8.192-21.504 21.504-21.504 12.288 0 21.504 8.192 21.504 21.504l0 64.512 102.4 0 0-750.592L836.608-33.792z"  horiz-adv-x="1024" />

    
    <glyph glyph-name="iconchange" unicode="&#58919;" d="M820.076024 467.425497 203.923976 467.425497c-7.992592 0-14.449883 6.457292-14.449883 14.449883 0 7.992592 6.457292 14.449883 14.449883 14.449883l581.923888 0-189.248313 194.486396c-5.554174 5.734797-5.463862 14.856286 0.270935 20.455616s14.856286 5.418706 20.41046-0.270935l213.135776-219.006041c4.06403-4.154341 5.238083-10.340698 2.935133-15.714248C831.139216 470.9025 825.901133 467.425497 820.076024 467.425497zM417.059752 46.121092c-3.747938 0-7.541033 1.444988-10.340698 4.380121l-213.135776 219.006041c-4.06403 4.154341-5.238083 10.340698-2.935133 15.714248s7.495877 8.850553 13.320986 8.850553l616.152048 0c7.992592 0 14.449883-6.457292 14.449883-14.449883s-6.457292-14.449883-14.449883-14.449883L238.152137 265.172289l189.248313-194.486396c5.554174-5.734797 5.418706-14.856286-0.270935-20.41046C424.32985 47.520924 420.717379 46.121092 417.059752 46.121092z"  horiz-adv-x="1024" />

    
    <glyph glyph-name="shangduiqi" unicode="&#58967;" d="M921.6 640 921.6 691.2 102.4 691.2l0-51.2L921.6 640zM819.2 179.2 819.2 588.8l-256 0 0-409.6L819.2 179.2zM460.8 537.6l0-512L256 25.6 256 537.6 460.8 537.6M512 588.8 204.8 588.8l0-614.4 307.2 0L512 588.8 512 588.8z"  horiz-adv-x="1024" />

    
    <glyph glyph-name="shuipingjuzhongduiqi" unicode="&#58968;" d="M102.4 409.6l102.4 0 0-51.2-102.4 0 0 51.2ZM512 409.6l409.6 0 0-51.2-409.6 0 0 51.2ZM563.2 563.2l256 0 0-358.4-256 0 0 358.4ZM460.8 640l0-512L256 128 256 640 460.8 640M512 691.2 204.8 691.2l0-614.4 307.2 0L512 691.2 512 691.2z"  horiz-adv-x="1024" />

    
    <glyph glyph-name="shuipingjunfen" unicode="&#58969;" d="M716.8 128l0 51.2 204.8 0 0-51.2L716.8 128zM102.4 128l0 51.2 204.8 0 0-51.2L102.4 128zM307.2 25.6l409.6 0 0 256L307.2 281.6 307.2 25.6zM102.4 563.2l102.4 0 0-51.2-102.4 0 0 51.2ZM819.2 563.2l102.4 0 0-51.2-102.4 0 0 51.2ZM768 640l0-204.8L256 435.2 256 640 768 640M819.2 691.2 204.8 691.2l0-307.2 614.4 0L819.2 691.2 819.2 691.2z"  horiz-adv-x="1024" />

    
    <glyph glyph-name="xiaduiqi" unicode="&#58970;" d="M921.6 76.8l0-51.2L102.4 25.6l0 51.2L921.6 76.8zM870.4 537.6l0-409.6-256 0L614.4 537.6 870.4 537.6zM460.8 691.2l0-512L256 179.2 256 691.2 460.8 691.2M512 742.4 204.8 742.4l0-614.4 307.2 0L512 742.4 512 742.4z"  horiz-adv-x="1024" />

    
    <glyph glyph-name="youduiqi1" unicode="&#58971;" d="M819.2 793.6l51.2 0 0-819.2-51.2 0 0 819.2ZM358.4 691.2l409.6 0 0-256-409.6 0 0 256ZM716.8 332.8l0-204.8L204.8 128l0 204.8L716.8 332.8M768 384 153.6 384l0-307.2 614.4 0L768 384 768 384z"  horiz-adv-x="1024" />

    
    <glyph glyph-name="zuoduiqi1" unicode="&#58972;" d="M153.6 793.6l51.2 0 0-819.2-51.2 0 0 819.2ZM256 691.2l409.6 0 0-256-409.6 0 0 256ZM819.2 332.8l0-204.8L307.2 128l0 204.8L819.2 332.8M870.4 384 256 384l0-307.2 614.4 0L870.4 384 870.4 384z"  horiz-adv-x="1024" />

    
    <glyph glyph-name="guanbi" unicode="&#58933;" d="M887.132284 62.106756 560.497039 388.742001l320.308143 320.314283c12.085246 12.087293 12.085246 31.670304 0 43.756573-12.08627 12.085246-31.68463 12.085246-43.756573 0L516.740466 432.499597l-326.639339 326.640362c-12.025894 12.025894-31.535227 12.025894-43.561122 0-12.040221-12.025894-12.040221-31.54853 0-43.575448l326.633199-326.633199L136.905578 52.660616c-12.079106-12.08627-12.079106-31.668257 0-43.754526 12.08627-12.087293 31.677467-12.087293 43.763736 0l336.261487 336.266603 326.642408-326.642408c12.025894-12.025894 31.518854-12.025894 43.559075 0C899.159202 30.557202 899.159202 50.080861 887.132284 62.106756z"  horiz-adv-x="1024" />

    
    <glyph glyph-name="danxuan" unicode="&#59089;" d="M506.892 814.151c-241.603 0-439.276-197.674-439.276-439.276 0-241.598 197.674-439.271 439.276-439.271 241.598 0 439.269 197.674 439.269 439.271 0 241.603-197.674 439.276-439.269 439.276v0zM506.892-20.467c-219.637 0-395.348 175.709-395.348 395.342 0 219.637 175.709 395.348 395.348 395.348 219.633 0 395.342-175.709 395.342-395.348-0.001-219.633-175.711-395.342-395.342-395.342v0zM506.892-20.467zM287.253 374.876c0-28.751 5.714-57.488 16.719-84.049 11.002-26.562 27.28-50.929 47.611-71.255 20.331-20.331 44.69-36.609 71.255-47.612 26.559-11.006 55.301-16.718 84.053-16.718 28.751 0 57.488 5.714 84.049 16.718 26.562 11.003 50.929 27.282 71.255 47.612 20.331 20.327 36.609 44.69 47.612 71.255 11.006 26.56 16.718 55.299 16.718 84.049 0 28.752-5.714 57.494-16.718 84.053-11.003 26.563-27.282 50.925-47.612 71.255-20.327 20.331-44.69 36.609-71.255 47.611-26.56 11.007-55.299 16.719-84.049 16.719-28.752 0-57.494-5.714-84.053-16.719-26.563-11.002-50.925-27.28-71.255-47.611-20.331-20.331-36.609-44.69-47.611-71.255-11.007-26.559-16.719-55.301-16.719-84.053v0zM287.253 374.876z"  horiz-adv-x="1024" />

    
    <glyph glyph-name="danxuan1" unicode="&#58993;" d="M511.829108 782.293285c219.430618 0 397.952524-178.520883 397.952524-397.952524S731.259726-13.61074 511.829108-13.61074 113.876584 164.90912 113.876584 384.341784 292.39849 782.293285 511.829108 782.293285M511.829108 832.038246c-247.25636 0-447.696462-200.441125-447.696462-447.696462 0-247.25636 200.440102-447.696462 447.696462-447.696462s447.696462 200.440102 447.696462 447.696462C959.52557 631.597121 759.085468 832.038246 511.829108 832.038246L511.829108 832.038246z"  horiz-adv-x="1024" />

    
    <glyph glyph-name="queren" unicode="&#59007;" d="M949.01468 681.229518c-10.865465 10.865465-28.467355 10.865465-39.333844 0L373.977995 146.640034 114.343723 406.328541c-10.865465 10.865465-28.467355 10.865465-39.333844 0s-10.865465-28.467355 0-39.333844L349.802386 92.148979c1.113357-1.847068 1.983167-3.802606 3.559059-5.378497 5.432733-5.432733 12.576433-8.149611 19.693528-8.149611s14.207583 2.716878 19.639293 8.149611l556.267203 555.125193C959.853539 652.707928 959.853539 670.364053 949.01468 681.229518z"  horiz-adv-x="1024" />

    
    <glyph glyph-name="txt" unicode="&#59011;" d="M738.232558 892.598007h-17.009967l17.009967-17.009967v-93.554817c0-40.82392 34.019934-74.843854 74.843854-74.843854h93.554817l17.009967-17.009967v17.009967L738.232558 892.598007z m-17.009967-119.069768v119.069768h-544.318937c-47.627907 0-85.049834-37.421927-85.049833-85.049834v-850.498339c0-47.627907 37.421927-85.049834 85.049833-85.049834h663.388705c47.627907 0 85.049834 37.421927 85.049834 85.049834v731.428571h-119.069768c-45.92691 0-85.049834 39.122924-85.049834 85.049834z m-408.239202-493.289036c0 10.20598 6.803987 17.009967 17.009966 17.009966h255.149502c10.20598 0 17.009967-6.803987 17.009967-17.009966s-6.803987-17.009967-17.009967-17.009967h-255.149502c-8.504983 0-17.009967 8.504983-17.009966 17.009967z m129.275747-170.099668h-40.82392v-107.162791h-15.30897v107.162791h-40.82392v13.607973h96.95681v-13.607973z m95.255814-107.162791l-30.61794 44.225914c-1.700997 1.700997-3.401993 5.10299-5.10299 8.504983-3.401993-5.10299-5.10299-6.803987-5.10299-8.504983l-30.61794-42.524917h-18.710964l47.627907 62.936877-40.82392 57.833887h18.710963l22.112957-30.61794c5.10299-6.803987 8.504983-11.906977 10.20598-15.30897 3.401993 5.10299 5.10299 8.504983 10.20598 13.607973l23.813954 32.318937h17.009967L512 67.614618l45.92691-64.637874h-20.41196z m122.471761 107.162791h-40.82392v-107.162791h-15.30897v107.162791H563.0299v13.607973h96.956811v-13.607973z m44.225914 255.149502h-374.21927c-10.20598 0-17.009967 6.803987-17.009966 17.009966s6.803987 17.009967 17.009966 17.009967h374.21927c10.20598 0 17.009967-6.803987 17.009966-17.009967s-6.803987-17.009967-17.009966-17.009966z m0 102.0598h-374.21927c-10.20598 0-17.009967 6.803987-17.009966 17.009967s6.803987 17.009967 17.009966 17.009967h374.21927c10.20598 0 17.009967-6.803987 17.009966-17.009967s-6.803987-17.009967-17.009966-17.009967z"  horiz-adv-x="1024" />

    
    <glyph glyph-name="wenjianjia-zhankai" unicode="&#59023;" d="M40.96 711.68c0 45.056 36.864 81.92 81.92 81.92h256c45.056 0 81.92-36.864 81.92-81.92v-20.48c0-22.528 18.432-40.96 40.96-40.96h296.96c45.056 0 81.92-36.864 81.92-81.92v-20.48h-606.208c-45.056 0-88.064-36.864-96.256-79.872l-90.112-493.568c-26.624 0-47.104 36.864-47.104 81.92v655.36z m182.272-264.192c6.144 32.768 38.912 59.392 73.728 59.392h634.88c34.816 0 55.296-26.624 49.152-59.392L901.12 35.84c-6.144-32.768-38.912-59.392-73.728-59.392h-696.32l92.16 471.04z"  horiz-adv-x="1024" />

    
    <glyph glyph-name="wenjianjia-shouqi" unicode="&#59025;" d="M40.96 711.68c0 45.056 36.864 81.92 81.92 81.92h256c45.056 0 81.92-36.864 81.92-81.92v-20.48c0-22.528 18.432-40.96 40.96-40.96h397.312c45.056 0 81.92-36.864 81.92-81.92v-512c0-45.056-36.864-81.92-81.92-81.92h-778.24c-45.056 0-81.92 36.864-81.92 81.92v655.36z"  horiz-adv-x="1024" />

    
    <glyph glyph-name="xiangximoshi" unicode="&#58889;" d="M420.352 567.808h367.104c25.6 0 46.08 20.48 46.08 46.08s-20.48 46.08-46.08 46.08H420.352c-25.6 0-46.08-20.48-46.08-46.08s20.48-46.08 46.08-46.08zM787.456 430.08H420.352c-25.6 0-46.08-20.48-46.08-46.08s20.48-46.08 46.08-46.08h367.104c25.6 0 46.08 20.48 46.08 46.08s-20.992 46.08-46.08 46.08z m0-229.888H420.352c-25.6 0-46.08-20.48-46.08-46.08s20.48-46.08 46.08-46.08h367.104c25.6 0 46.08 20.48 46.08 46.08s-20.992 46.08-46.08 46.08zM190.464 567.808h91.648V659.456H190.464v-91.648z m0-229.888h91.648V430.08H190.464v-92.16z m0-229.376h91.648v91.648H190.464v-91.648z"  horiz-adv-x="1024" />

    
    <glyph glyph-name="excel" unicode="&#59012;" d="M160 864c-12 0-24.8-4.8-33.6-14.4S112 828 112 816v-864c0-12 4.8-24.8 14.4-33.6 9.6-9.6 21.6-14.4 33.6-14.4h704c12 0 24.8 4.8 33.6 14.4 9.6 9.6 14.4 21.6 14.4 33.6V592L640 864H160zM912 592H688c-12 0-24.8 4.8-33.6 14.4-9.6 8.8-14.4 21.6-14.4 33.6V864l272-272zM475.2 358.4l-108.8 152h75.2l71.2-108.8 74.4 108.8h72.8l-111.2-152 116.8-161.6h-76L511.2 312l-78.4-116h-74.4l116.8 162.4z"  horiz-adv-x="1024" />

    
    <glyph glyph-name="zitiyanse1" unicode="&#58950;" d="M470.975 759l-214.462-562.5h102l44.513 131.25h217.949l48.038-131.25h102.002l-214.501 562.5h-85.5zM512 639.45l78.525-233.175h-160.538l82.013 233.212zM212 121.5v-112.5h599.999v112.5h-599.999z"  horiz-adv-x="1024" />

    
    <glyph glyph-name="shujuyuanpeizhi" unicode="&#59107;" d="M400 273.72799999999995c-118.912 7.264-220.544 37.504-280 79.712v-81.408c0-55.488 121.056-101.568 280-110.4v-55.904c-118.912 7.264-220.544 37.44-280 79.744v-81.44H64V636C64 744.256 239.488 832 456 832c216.448 0 391.936-87.744 391.936-196v-176.832h-56v75.84c-68.576-56.896-193.408-94.976-335.968-94.976-142.56 0-267.36 38.08-336 94.976v-94.976c0-55.488 121.088-101.6 280-110.432v-55.872z m56-337.664c-216.512 0-392 75.2-392 168h56c0-61.888 150.4-112 336-112v-56z m0 559.968c185.536 0 335.968 62.72 335.968 139.968 0 77.28-150.4 140-336 140-185.568 0-336-62.72-336-140 0-77.248 150.432-139.968 336-139.968z m487.264-367.36l-38.976 22.72c2.176 11.904 3.584 24.064 3.584 36.64a202.72 202.72 0 0 1-3.584 36.672l38.976 22.72c15.968 9.408 21.408 29.888 12.192 45.952l-33.28 58.176a33.152 33.152 0 0 1-45.568 12.32l-39.424-22.976a199.36 199.36 0 0 1-62.592 36.96v28.576c0 18.528-14.88 33.6-33.312 33.6h-66.624a33.472 33.472 0 0 1-33.344-33.6v-28.576a199.36 199.36 0 0 1-62.592-36.96l-39.424 22.976a33.152 33.152 0 0 1-45.536-12.32l-33.28-58.24a33.76 33.76 0 0 1 12.16-45.92l39.008-22.688c-2.304-12.064-3.52-24.352-3.584-36.672 0-12.576 1.376-24.736 3.584-36.672l-38.976-22.72c-16-9.376-21.44-29.856-12.224-45.92l33.312-58.176a33.152 33.152 0 0 1 45.536-12.32l39.424 22.944a198.784 198.784 0 0 1 62.592-36.96v-28.544c0-18.56 14.912-33.6 33.344-33.6h66.624a33.472 33.472 0 0 1 33.312 33.6v28.544a199.36 199.36 0 0 1 62.592 36.96l39.424-22.944a33.216 33.216 0 0 1 45.536 12.32l33.312 58.24a33.76 33.76 0 0 1-12.192 45.888z m-41.376-33.088l-15.36-26.144a15.52 15.52 0 0 0-20.992-5.472l-42.656 24.16a153.984 153.984 0 0 0-84.16-47.808v-33.216c0-8.288-6.912-15.04-15.424-15.04h-30.688a15.232 15.232 0 0 0-15.36 15.104V40.32000000000005a153.984 153.984 0 0 0-84.192 47.808L550.4 64a15.52 15.52 0 0 0-21.024 5.472l-15.36 26.144a14.88 14.88 0 0 0 5.632 20.544l42.848 24.32a147.2 147.2 0 0 0-8.128 47.584c0 16.704 3.008 32.608 8.16 47.616l-42.88 24.32a14.88 14.88 0 0 0-5.6 20.512l15.36 26.176a15.52 15.52 0 0 0 20.992 5.472l42.656-24.192a153.984 153.984 0 0 0 84.16 47.808V368.96000000000004c0 8.32 6.88 15.04 15.392 15.04h30.72c8.48 0 15.36-6.72 15.36-15.104v-33.152a153.984 153.984 0 0 0 84.16-47.808l42.688 24.192a15.52 15.52 0 0 0 20.992-5.472l15.36-26.176a14.88 14.88 0 0 0-5.6-20.544l-42.848-24.32c5.024-14.976 8.128-30.88 8.128-47.584 0-16.672-3.04-32.576-8.128-47.584l42.848-24.32a14.88 14.88 0 0 0 5.6-20.544z m-193.92 176.448a84 84 0 1 1 0-168 84 84 0 0 1 0 168z m0-112a28 28 0 1 0 0 56 28 28 0 0 0 0-56z"  horiz-adv-x="1024" />

    
    <glyph glyph-name="jiahao" unicode="&#58887;" d="M884.392 419.312h-336.6v336.6c0 19.422-15.891 35.312-35.313 35.312-19.421 0-35.311-15.89-35.311-35.312v-336.6H140.567c-19.421 0-35.312-15.89-35.312-35.311 0-19.422 15.89-35.312 35.312-35.312h336.6v-336.6c0-19.421 15.89-35.311 35.311-35.311 19.422 0 35.312 15.89 35.312 35.312V348.688h336.6c19.421 0 35.312 15.89 35.312 35.312 0.001 19.421-15.89 35.312-35.31 35.312z"  horiz-adv-x="1024" />

    
    <glyph glyph-name="gailan" unicode="&#58892;" d="M859.161504-50.367318H164.404995l-6.321879 6.105129c-24.023143 23.264517-45.842659 49.057786-64.844423 76.585056-19.001764 27.52727-35.330276 57.041417-48.51591 87.783815-13.546885 31.248148-23.878642 63.905172-30.670148 97.031821-6.791505 33.126649-10.223382 67.62605-10.223382 102.55895-0.07225 33.813025 3.323502 67.734425 10.078882 100.824949 6.75538 33.090524 16.942637 65.566923 30.272772 96.598321C56.716292 547.176745 72.250053 576.185141 90.312566 603.315036c18.098638 27.16602 38.942779 52.670289 61.918295 75.862555l0.144501 0.1445c23.192267 22.939392 48.732661 43.747407 75.862555 61.882171 27.129895 18.098638 56.102166 33.6324 86.194313 46.240033 31.031398 13.257885 63.543922 23.409017 96.598321 30.128273 32.765399 6.68313 66.325549 10.042757 99.741198 10.042757h0.975376c33.740775 0.07225 67.662175-3.287377 100.716574-10.042757 33.090524-6.75538 65.603048-16.906512 96.67057-30.200523L692.083257 747.526141c-57.294292 24.528893-117.984336 36.883652-180.300007 36.739152H510.771749c-61.990545 0-122.31934-12.354759-179.360756-36.739152l-0.1445-0.07225C275.706202 724.189374 225.781415 690.918225 182.973259 648.543569 140.598603 605.735412 107.327454 555.882876 84.171312 500.28646l-0.07225-0.21675c-24.601143-57.294292-37.028152-117.984336-36.847527-180.336132v-0.036125c0-63.977422 12.571509-125.353842 37.317152-182.395259l0.036125-0.07225c23.300642-54.11529 56.066041-102.6312 97.537571-144.283355h659.426233c41.47153 41.652156 74.273054 90.168066 97.537572 144.283355l0.036125 0.036125c25.034643 57.872292 37.570028 119.212587 37.244902 182.286884v0.180625c0.1445 62.351796-12.210259 123.04184-36.739152 180.372257l-0.07225 0.180625c-17.123263 40.929655-21.277641 47.86566-49.419036 82.545686l33.668525 27.31052c30.778523-37.895153 37.028152-48.335285 55.740915-93.094194 13.257885-31.031398 23.409017-63.543922 30.164398-96.634445 6.75538-33.090524 10.115007-66.975799 10.042757-100.716574 0.180625-34.174275-3.215127-68.456925-10.042757-101.9087-6.82763-33.4879-17.195513-66.361674-30.742398-97.718196-13.22176-30.742398-29.550272-60.292669-48.552036-87.81994-19.001764-27.52727-40.82128-53.320539-64.844422-76.585056l-6.430255-6.032879zM485.484231 713.387991h52.489663v-93.708318h-52.489663zM203.311649 331.799337l-92.443943 17.051012 9.139632 51.369788 92.516193-17.014888zM292.432089 530.595357L231.92267 602.592535l39.990404 33.018274L332.350243 563.685882zM488.952233 176.931348c-20.808015-1.806251-41.47153 4.804629-57.402667 18.315389-16.762012 13.835885-26.046144 31.681648-27.88852 53.501164-2.131377 20.808015 4.515628 41.579905 18.315388 57.330417 18.532139 22.650392 48.407535 32.620899 76.801806 25.721019l177.988006 149.015734-119.718338-203.564524c7.803006-27.129895 2.781627-51.514288-14.955761-73.117054-13.908135-16.436887-31.645523-25.540394-53.139914-27.202145zM731.06216 530.595357l-40.062654 33.090525 60.581669 71.924927 39.918155-33.018274zM820.074226 331.799337l-9.031257 51.405912 92.443943 17.195513 9.139631-51.405913z"  horiz-adv-x="1024" />

    
    <glyph glyph-name="moxingsheji" unicode="&#59005;" d="M818.113382 402.938774l156.827519 290.020893V146.672509l-156.827519 256.266265z m-157.24109-290.019295h300.430392L544.953036-95.953942l115.919256 208.873421z m-286.412138 0c20.45493-33.404929 40.906667-67.126024 54.557659-94.394474 34.091551-60.63825 54.559255-94.043179 68.195875-114.477351L67.209855 112.919479h307.250299zM46.742151 692.961264c13.652588-27.289208 81.84527-148.604031 163.672975-290.020893L46.742151 140.224655V692.961264z m368.623074 67.121233H176.331559L504.031998 868.116784l-88.666773-108.034287z m204.6004 0l-81.846867 108.034287 320.904484-114.498109-239.057617 6.463822z m68.178311-148.249543l-40.906667 74.311596h218.620251l-177.713584-74.311596z m27.30358-33.738659l198.144562 81.12831-115.949595-215.728458-82.194967 134.600148z m-156.856263-465.174816h54.536901l-54.536901-107.679799v107.679799z m-68.195875 0v-121.31642c-20.470898 33.721094-34.102728 60.64304-68.210247 114.83184l68.210247 6.48458zM319.900899 578.094295l-82.198162-134.600148c-47.739348 80.761047-88.661983 155.071046-122.753533 215.728458l204.951695-81.12831z m20.45493 33.738659l-177.681648 74.311596h225.420997l-47.739349-74.311596z m95.480294 148.249543l81.827705 101.215977 74.993427-101.215977h-156.821132z m184.129502-73.939543l47.740945-81.129907-150.044339-60.657411-156.856262 60.657411 47.740945 81.129907h211.418711z m-259.159656-552.789303H67.209855l156.841891 249.483085c13.652588-26.918752 34.107518-60.657411 48.108208-87.962588 34.088357-60.63825 61.377565-114.477351 88.646015-161.520497z m-109.465015 289.690356l89.016472 148.602434 150.037952-61.023077v-377.269713h-75.028557c-54.560852 87.630454-109.11851 188.825673-164.025867 289.690356z m559.936553-47.025581l150.026774-249.462327H681.344787l129.93272 249.462327z m-184.476007-242.664775h-68.210247V510.621767l136.385364 61.023077 88.99731-148.602434-157.172427-289.688759zM954.4716 746.800365L544.953036 895.035536c-20.469301 0-34.107518 0-47.739348-6.81831L74.029762 746.800365c-27.287612-13.63662-47.740945-33.737062-47.740945-67.475722V146.672509c0-26.918752 13.638217-47.036759 40.921038-60.673379L497.213688-122.874291c20.45014-6.832681 40.906667-6.832681 61.377565 0l402.713028 208.875018c20.470898 13.63662 34.099535 33.754627 34.099535 60.673379V686.142954c0 26.920349-13.628636 47.020791-40.932216 60.657411z"  horiz-adv-x="1024" />

    
    <glyph glyph-name="onArrow" unicode="&#59018;" d="M919.79776 514.89792l-364.60032-398.69952a57.38496 57.38496 0 0 0-86.20032 0l-364.5952 398.69952c-17.80224 18.80064-23.30112 46.19776-14.10048 70.4s31.40096 41.09824 57.20064 43.40224h728.89856a67.4048 67.4048 0 0 0 57.40032-43.29984 67.5072 67.5072 0 0 0-14.0032-70.5024z"  horiz-adv-x="1024" />

    
    <glyph glyph-name="xuanze" unicode="&#58939;" d="M838.0491070251464 805.875H185.95089297485356C133.3370539245605 805.875 90.125 762.723214050293 90.125 710.0491070251464v-652.0982140502929C90.125 5.3370539245604505 133.276785949707-37.875 185.95089297485356-37.875h652.0982140502929c52.674107025146476 0 95.82589297485352 43.15178594970703 95.82589297485352 95.82589297485352V710.0491070251464C933.875 762.6629460754395 890.723214050293 805.875 838.0491070251464 805.875z m38.33035702514648-747.9241070251464a38.99330392456054 38.99330392456054 0 0 0-38.390625-38.270089050292974H186.011160949707a38.93303594970703 38.93303594970703 0 0 0-38.33035702514648 38.33035702514648V709.988839050293c0 20.732142974853513 17.59821405029297 38.33035702514648 38.33035702514648 38.33035702514648h651.977678100586c20.732142974853513 0 38.390625-17.59821405029297 38.390625-38.33035702514648v-651.977678100586z"  horiz-adv-x="1024" />

    
    <glyph glyph-name="xuanze1" unicode="&#58948;" d="M837.9973144531249 805.875H186.00268554687506C133.26831054687506 805.875 90.125 762.731689453125 90.125 709.997314453125V58.002685546875114c0-52.734375 43.143310546875-95.877685546875 95.877685546875-95.877685546875h651.9946289062499c52.734375 0 95.877685546875 43.143310546875 95.877685546875 95.877685546875V709.997314453125C933.875 762.731689453125 890.7316894531249 805.875 837.9973144531249 805.875z m38.35189819335938-747.8714904785157c0-20.71060180664063-17.647064208984375-38.34613037109375-38.35272216796874-38.34613037109375H186.00350952148438c-20.711425781249996 0-38.34613037109375 17.63552856445312-38.34613037109375 38.34613037109375V709.997314453125c0 20.704833984375 17.634704589843754 38.34613037109375 38.34613037109375 38.34613037109375h651.9929809570312c20.705657958984375 0 38.35272216796874-17.64129638671875 38.35272216796874-38.34613037109375V58.002685546875114zM752.6846313476562 604.0325317382812L394.40234375 230.46304321289062 269.36090087890625 360.85784912109375c-11.378265380859373 11.871002197265625-29.824584960937496 11.871002197265625-41.2020263671875 0-11.384857177734375-11.865234375-11.384857177734375-31.095153808593746 0-42.96697998046875l145.64163208007812-151.8914794921875c5.692016601562501-5.9326171875 13.149810791015623-8.89892578125 20.60101318359375-8.89892578125 7.463562011718751 0 14.914764404296875 2.96630859375 20.60101318359375 8.89892578125l378.8841247558594 395.0587463378906c11.384857177734375 11.871002197265625 11.384857177734375 31.10256958007813 0 42.974395751953125-11.37744140625 11.871002197265625-29.82376098632812 11.871002197265625-41.2020263671875 0z"  horiz-adv-x="1024" />

    
    <glyph glyph-name="bangzhu-shipinwenjian" unicode="&#59013;" d="M981.333-72.533c0-29.867-25.6-55.467-59.733-55.467H102.4c-34.133 0-59.733 25.6-59.733 55.467V840.533C42.667 870.4 68.267 896 102.4 896H768v-102.4l93.867-110.933h119.466v-755.2zM256 0h512V512H256zM768 896v-89.6c0-8.533 21.333-115.2 34.133-123.733l179.2-128v128L768 896zM768 896v-170.667c0-25.6 21.333-42.666 42.667-42.666h170.666L768 896zM405.333 128V384l213.334-128z"  horiz-adv-x="1024" />

    
    <glyph glyph-name="csv" unicode="&#59014;" d="M128 896h597.3l227.6-227.9v-739.2c0-31.4-25.5-56.9-56.9-56.9H128c-31.4 0-56.9 25.5-56.9 56.9V839.1C71.1 870.5 96.6 896 128 896zM725.3 896l227.6-227.6H782.2c-31.4 0-56.9 25.5-56.9 56.9V896zM438.7 279.3c-9-4.4-22.8-7.2-36.4-7.2-42 0-66.3 27.1-66.3 69.4 0 45.3 26.9 71.2 67.3 71.2 14.3 0 26.4-3.1 34.8-7.2l5.4 18.2c-5.9 3.1-19.5 7.7-41 7.7-53.5 0-90.1-36.6-90.1-90.6 0-56.6 36.6-87.3 85.2-87.3 21 0 37.4 4.1 45.6 8.2l-4.5 17.6z m23.8-14.9c9.2-6.1 27.4-11 44-11 40.7 0 60.4 23 60.4 49.7 0 25.3-14.8 39.4-44 50.7-23.8 9.2-34.3 17.2-34.3 33.3 0 11.8 9 25.9 32.5 25.9 15.6 0 27.1-5.1 32.8-8.2L560 423c-7.7 4.4-20.5 8.4-38.1 8.4-33.5 0-55.8-20-55.8-46.8 0-24.3 17.4-38.9 45.6-48.9 23.3-9 32.5-18.2 32.5-34.3 0-17.4-13.3-29.4-36.1-29.4-15.4 0-30 5.1-39.9 11.3l-5.7-18.9z m197.3-8.4l61.7 172.5h-23.8l-29.2-85.2c-7.7-22.5-14.8-44.3-19.7-64.3h-0.5c-4.6 20.2-11 41.2-18.4 64.5l-26.9 85h-24.1L635.3 256h24.5z"  horiz-adv-x="1024" />

    
    <glyph glyph-name="wenjianjia" unicode="&#59068;" d="M931.2 572.8V633.6c0 32-25.6 60.8-60.8 60.8H512V755.2c0 32-25.6 60.8-60.8 60.8H92.8C57.6 812.8 32 787.2 32 755.2V32c3.2-32 25.6-57.6 57.6-57.6H832c28.8 0 54.4 19.2 57.6 48l96 480c12.8 38.4-16 70.4-54.4 70.4zM92.8 339.2v384c0 16 12.8 28.8 28.8 28.8h300.8c16 0 28.8-12.8 28.8-28.8v-60.8c0-16 12.8-28.8 28.8-28.8h361.6c16 0 28.8-12.8 28.8-28.8v-28.8H188.8c-28.8 0-54.4-19.2-57.6-48l-38.4-188.8z m742.4-281.6c-3.2-12.8-16-22.4-28.8-22.4H128c-19.2 0-32 16-28.8 35.2l83.2 419.2c3.2 12.8 16 25.6 28.8 25.6H896c19.2 0 35.2-19.2 28.8-35.2 3.2-3.2-89.6-422.4-89.6-422.4z"  horiz-adv-x="1024" />

    
    <glyph glyph-name="onArrow1" unicode="&#58881;" d="M381.10208 791.79775999l398.69952-364.60031999a57.38496 57.38496 0 0 0 0-86.20032l-398.69952-364.5952c-18.80064-17.80224-46.19776-23.30112-70.4-14.10048s-41.09824 31.40096-43.40224 57.20064l0 728.89856a67.4048 67.4048 0 0 0 43.29984 57.40032 67.5072 67.5072 0 0 0 70.5024-14.00320001z"  horiz-adv-x="1024" />

    
    <glyph glyph-name="sucai" unicode="&#58880;" d="M864 704h-384a128 128 0 0 1-128 128h-192a128 128 0 0 1-128-128v-640a128 128 0 0 1 128-128h704a128 128 0 0 1 128 128V576a128 128 0 0 1-128 128z m64-640a64 64 0 0 0-64-64h-704a64 64 0 0 0-64 64V512h832v-448z m-832 512V704a64 64 0 0 0 64 64h192a64 64 0 0 0 64-64v-64h448a64 64 0 0 0 64-64h-832z"  horiz-adv-x="1024" />

    
    <glyph glyph-name="tuozhuai" unicode="&#58929;" d="M405.406 643.891m-59.233 0a59.233 59.233 0 1 1 118.466 0 59.233 59.233 0 1 1-118.466 0ZM674.593 643.891m-59.233 0a59.233 59.233 0 1 1 118.466 0 59.233 59.233 0 1 1-118.466 0ZM405.406 350.826m-59.233 0a59.233 59.233 0 1 1 118.466 0 59.233 59.233 0 1 1-118.466 0ZM674.593 350.826m-59.233 0a59.233 59.233 0 1 1 118.466 0 59.233 59.233 0 1 1-118.466 0ZM405.406 53.109m-59.233 0a59.233 59.233 0 1 1 118.466 0 59.233 59.233 0 1 1-118.466 0ZM674.593 53.109m-59.233 0a59.233 59.233 0 1 1 118.466 0 59.233 59.233 0 1 1-118.466 0Z"  horiz-adv-x="1024" />

    
    <glyph glyph-name="shujuguolv-" unicode="&#58882;" d="M448-128c-19.2 0-32 12.8-32 32V467.2L38.4 838.4C32 851.2 32 864 32 876.8 38.4 889.6 51.2 896 64 896h896c12.8 0 25.6-6.4 32-19.2 6.4-12.8 0-25.6-6.4-32L608 467.2v-435.2c0-19.2-12.8-32-32-32s-32 12.8-32 32v448c0 6.4 6.4 19.2 6.4 25.6L883.2 832H140.8l326.4-326.4c6.4-6.4 6.4-12.8 6.4-25.6v-576c6.4-19.2-6.4-32-25.6-32zM960 384h-224c-19.2 0-32 12.8-32 32s12.8 32 32 32H960c19.2 0 32-12.8 32-32s-12.8-32-32-32zM960 224h-224c-19.2 0-32 12.8-32 32s12.8 32 32 32H960c19.2 0 32-12.8 32-32s-12.8-32-32-32zM960 64h-224c-19.2 0-32 12.8-32 32s12.8 32 32 32H960c19.2 0 32-12.8 32-32s-12.8-32-32-32z"  horiz-adv-x="1024" />

    
    <glyph glyph-name="biaolianjieJOIN-" unicode="&#58883;" d="M1024 646.4C1024 787.2 915.2 896 774.4 896c-64 0-128-25.6-172.8-70.4L403.2 627.2C358.4 576 332.8 518.4 332.8 448c0-83.2 44.8-160 115.2-211.2 6.4-6.4 19.2-6.4 25.6-6.4 6.4 0 12.8 6.4 19.2 12.8 0 12.8 6.4 25.6 0 32 0 6.4-6.4 12.8-12.8 19.2-51.2 38.4-83.2 96-83.2 153.6 0 51.2 19.2 96 51.2 128l198.4 198.4c32 32 76.8 51.2 128 51.2C876.8 832 960 748.8 960 646.4c0-51.2-19.2-96-51.2-128l-96-96c-6.4-6.4-12.8-12.8-12.8-25.6 0-6.4 6.4-19.2 12.8-25.6 12.8-12.8 32-12.8 44.8 0l96 96c44.8 51.2 70.4 115.2 70.4 179.2zM192 396.8c-6.4 0-19.2-6.4-25.6-12.8L70.4 294.4c-44.8-44.8-70.4-108.8-70.4-172.8C0-19.2 108.8-128 249.6-128c64 0 128 25.6 172.8 70.4l198.4 198.4c44.8 44.8 70.4 108.8 70.4 172.8 0 83.2-44.8 160-115.2 211.2-6.4 6.4-12.8 6.4-19.2 6.4-6.4 0-12.8-6.4-19.2-12.8-6.4-6.4-12.8-19.2-6.4-25.6 0-6.4 6.4-19.2 12.8-19.2 51.2-38.4 83.2-96 83.2-153.6 0-51.2-19.2-96-51.2-128l-198.4-198.4c-32-32-76.8-51.2-128-51.2C147.2-64 64 19.2 64 121.6c0 51.2 19.2 96 51.2 128l96 96c6.4 6.4 12.8 12.8 12.8 25.6 0 6.4-6.4 19.2-12.8 25.6H192z"  horiz-adv-x="1024" />

    
    <glyph glyph-name="duqugongzuobiao-" unicode="&#58884;" d="M972.8 832H44.8c-25.6 0-44.8-19.2-44.8-44.8v-800c0-32 19.2-51.2 44.8-51.2h928c25.6 0 51.2 19.2 51.2 51.2V787.2c0 25.6-19.2 44.8-51.2 44.8zM384 774.4c25.6 0 51.2-25.6 51.2-51.2-6.4-19.2-25.6-44.8-51.2-44.8s-51.2 19.2-51.2 51.2c0 25.6 25.6 44.8 51.2 44.8z m-147.2 0c25.6 0 51.2-19.2 51.2-51.2 0-25.6-25.6-51.2-51.2-51.2-25.6 6.4-44.8 32-44.8 51.2 0 32 19.2 51.2 44.8 51.2z m-140.8 0c25.6 0 51.2-25.6 51.2-51.2s-19.2-44.8-44.8-44.8c-25.6 0-51.2 19.2-51.2 51.2-6.4 25.6 19.2 44.8 44.8 44.8z m211.2-768H76.8c-6.4 0-6.4 6.4-6.4 6.4v140.8c0 6.4 6.4 6.4 6.4 6.4h230.4c6.4 0 6.4-6.4 6.4-6.4v-140.8c6.4 0 0-6.4-6.4-6.4z m0 224H76.8c-6.4 0-6.4 6.4-6.4 6.4V377.6c0 6.4 6.4 6.4 6.4 6.4h230.4c6.4 6.4 12.8 0 12.8-6.4v-140.8s-6.4-6.4-12.8-6.4z m0 224H76.8c-6.4 0-6.4 6.4-6.4 6.4V601.6c0 6.4 6.4 6.4 6.4 6.4h230.4c6.4 6.4 12.8 0 12.8-6.4v-140.8s-6.4-6.4-12.8-6.4z m326.4-448H403.2c-6.4 0-6.4 6.4-6.4 6.4v140.8c0 6.4 6.4 6.4 6.4 6.4h230.4c6.4 0 6.4-6.4 6.4-6.4v-140.8l-6.4-6.4z m6.4 224H403.2c-6.4 0-6.4 6.4-6.4 6.4V377.6c0 6.4 6.4 6.4 6.4 6.4H633.6c0 6.4 6.4 0 6.4-6.4v-147.2z m-6.4 224H403.2c-6.4 0-6.4 6.4-6.4 6.4V601.6c0 6.4 6.4 6.4 6.4 6.4h230.4c6.4 0 6.4-6.4 6.4-6.4v-140.8l-6.4-6.4z m313.6-448h-230.4c-6.4 0-6.4 6.4-6.4 6.4v140.8c0 6.4 6.4 6.4 6.4 6.4h230.4c6.4 0 6.4-6.4 6.4-6.4v-140.8s0-6.4-6.4-6.4z m0 224h-230.4c-6.4 0-6.4 6.4-6.4 6.4V377.6c0 6.4 6.4 6.4 6.4 6.4h230.4c6.4 0 6.4-6.4 6.4-6.4v-140.8s0-6.4-6.4-6.4z m6.4 230.4c0-6.4-6.4-6.4-6.4-6.4h-230.4c-6.4 0-6.4 6.4-6.4 6.4V601.6c0 6.4 6.4 6.4 6.4 6.4h230.4c6.4 0 6.4-6.4 6.4-6.4v-140.8z"  horiz-adv-x="1024" />

    
    <glyph glyph-name="SQLsuanzi-" unicode="&#58885;" d="M838.4 896v-217.6h134.4L838.4 896zM460.8 614.4c12.8 0 19.2 0 25.6 6.4-6.4 6.4-19.2 12.8-25.6 12.8l6.4 19.2c12.8-6.4 32-12.8 38.4-19.2 19.2 19.2 25.6 38.4 25.6 70.4 0 19.2-6.4 32-6.4 44.8-6.4 12.8-19.2 25.6-32 32-6.4 6.4-19.2 6.4-32 6.4-25.6 0-38.4-6.4-57.6-19.2-12.8-12.8-19.2-32-19.2-64 0-25.6 6.4-51.2 19.2-64 19.2-12.8 32-25.6 57.6-25.6z m0 0M448 128l-89.6 89.6L448 307.2H377.6l-83.2-89.6L377.6 128H448z m128 0h70.4l83.2 89.6-83.2 89.6H576l89.6-89.6L576 128z m0 0M800 646.4V896H51.2v-1024h915.2V646.4h-166.4z m128-729.6h-832V505.6h832v-588.8z m-320 896h32v-192h108.8v-25.6H608V812.8z m-236.8-51.2c6.4 19.2 19.2 32 38.4 38.4 12.8 6.4 32 12.8 51.2 12.8 19.2 0 38.4-6.4 51.2-12.8 12.8-6.4 25.6-25.6 38.4-38.4 6.4-19.2 12.8-32 12.8-57.6 0-19.2-6.4-32-6.4-44.8-12.8-19.2-19.2-32-32-38.4l38.4-19.2-6.4-19.2c-19.2 0-32 12.8-44.8 25.6-19.2-12.8-38.4-12.8-57.6-12.8-19.2 0-38.4 6.4-51.2 12.8-12.8 6.4-25.6 19.2-38.4 38.4-6.4 19.2-12.8 32-12.8 57.6 6.4 19.2 6.4 38.4 19.2 57.6zM281.6 672c-6.4 6.4-12.8 6.4-19.2 12.8-6.4 0-19.2 6.4-38.4 12.8-19.2 0-32 6.4-38.4 12.8-12.8 6.4-19.2 12.8-25.6 19.2-6.4 6.4-6.4 19.2-6.4 25.6 0 12.8 6.4 19.2 6.4 32 6.4 12.8 12.8 19.2 25.6 25.6 12.8 6.4 25.6 6.4 38.4 6.4 12.8 0 32 0 44.8-6.4 12.8-6.4 19.2-12.8 25.6-25.6 6.4-12.8 12.8-19.2 12.8-32l-25.6-6.4c0 12.8-6.4 25.6-12.8 32-12.8 6.4-25.6 6.4-38.4 6.4-19.2 0-32 0-38.4-6.4-6.4-6.4-12.8-12.8-12.8-25.6 0-6.4 6.4-12.8 6.4-19.2 6.4 0 19.2-6.4 44.8-12.8 25.6-6.4 38.4-12.8 44.8-12.8 12.8-6.4 25.6-12.8 32-25.6 6.4-6.4 6.4-19.2 6.4-32s-6.4-25.6-12.8-32c-6.4-6.4-12.8-12.8-25.6-19.2-12.8-6.4-25.6-6.4-38.4-6.4-19.2 0-38.4 6.4-51.2 6.4-12.8 6.4-19.2 12.8-32 25.6-6.4 12.8-12.8 25.6-12.8 38.4h25.6c0-12.8 6.4-19.2 6.4-25.6 12.8-6.4 19.2-12.8 25.6-12.8 12.8-6.4 19.2-6.4 32-6.4s19.2 0 25.6 6.4c12.8 0 19.2 6.4 19.2 12.8 6.4 6.4 6.4 12.8 6.4 19.2 6.4 0 6.4 6.4 0 12.8z"  horiz-adv-x="1024" />

    
    <glyph glyph-name="renyuanchudaofenxi-" unicode="&#58886;" d="M313.6-128c-51.2 0-102.4 19.2-134.4 44.8-38.4 25.6-64 57.6-64 89.6-6.4 96 38.4 128 70.4 153.6 25.6 19.2 57.6 44.8 76.8 96 25.6 64 6.4 115.2-6.4 166.4-19.2 64-38.4 134.4 44.8 192 76.8 51.2 345.6-6.4 435.2-134.4 44.8-64 32-185.6-102.4-313.6-83.2-83.2-121.6-140.8-153.6-185.6-25.6-44.8-44.8-76.8-96-96-25.6-6.4-44.8-12.8-70.4-12.8z m12.8 697.6c-51.2-32-44.8-64-25.6-134.4 19.2-51.2 38.4-115.2 6.4-192-25.6-64-57.6-89.6-89.6-115.2-32-25.6-57.6-44.8-57.6-115.2 0-19.2 19.2-38.4 44.8-51.2 38.4-25.6 108.8-44.8 160-25.6 38.4 12.8 51.2 32 76.8 76.8 25.6 44.8 70.4 108.8 160 192 128 121.6 121.6 217.6 96 249.6C620.8 556.8 384 601.6 326.4 569.6zM832 403.2c-19.2 0-32 6.4-44.8 19.2-12.8 12.8-19.2 32-19.2 44.8 0 19.2 12.8 38.4 32 51.2 32 25.6 76.8 25.6 96 0 12.8-12.8 12.8-25.6 12.8-44.8 0-19.2-12.8-38.4-32-51.2-12.8-12.8-32-19.2-44.8-19.2z m19.2 89.6c-6.4 0-12.8 0-19.2-6.4-6.4-6.4-12.8-12.8-12.8-19.2v-6.4c6.4-6.4 19.2-6.4 32 6.4 6.4 6.4 12.8 12.8 12.8 19.2v6.4h-12.8z m-76.8 64c-12.8 0-25.6 0-32 6.4-12.8 6.4-25.6 19.2-25.6 38.4-6.4 19.2 6.4 44.8 19.2 64 25.6 32 76.8 44.8 102.4 25.6 12.8-6.4 25.6-19.2 25.6-38.4 6.4-19.2-6.4-44.8-19.2-64-19.2-19.2-51.2-32-70.4-32z m32 96c-12.8 0-25.6-6.4-38.4-19.2-6.4-6.4-12.8-19.2-6.4-19.2 12.8-6.4 32-6.4 44.8 12.8 6.4 6.4 12.8 19.2 6.4 19.2v6.4h-6.4z m-172.8-32c-6.4 0-12.8 0-25.6 6.4-19.2 6.4-32 19.2-38.4 38.4-12.8 19.2-12.8 51.2 0 70.4 19.2 44.8 64 70.4 108.8 57.6 19.2-6.4 32-19.2 44.8-38.4 12.8-19.2 12.8-51.2 0-70.4-19.2-38.4-57.6-64-89.6-64z m19.2 128c-12.8 0-32-12.8-38.4-32-6.4-12.8-6.4-25.6 0-32 0-6.4 6.4-12.8 12.8-12.8 12.8-6.4 38.4 12.8 44.8 32 6.4 12.8 6.4 25.6 0 32 0 6.4-6.4 12.8-12.8 12.8h-6.4zM281.6 652.8C230.4 652.8 192 704 192 774.4S230.4 896 281.6 896s89.6-51.2 89.6-121.6-38.4-121.6-89.6-121.6z m0 192c-19.2 0-38.4-32-38.4-76.8s19.2-76.8 38.4-76.8 38.4 38.4 38.4 83.2S300.8 844.8 281.6 844.8z m179.2-179.2h-6.4c-19.2 0-32 12.8-38.4 25.6-19.2 25.6-25.6 64-19.2 96C409.6 844.8 448 883.2 492.8 876.8c19.2 0 32-12.8 38.4-25.6 19.2-19.2 25.6-57.6 19.2-89.6-12.8-57.6-51.2-96-89.6-96zM480 832c-6.4 0-25.6-19.2-32-51.2-6.4-25.6 0-44.8 6.4-57.6 0-6.4 6.4-6.4 6.4-6.4 12.8 0 32 19.2 38.4 51.2 6.4 25.6 0 44.8-6.4 51.2 0 6.4-6.4 12.8-12.8 12.8 6.4 0 6.4 0 0 0z"  horiz-adv-x="1024" />

    
    <glyph glyph-name="shikongbuyizhifenxi-" unicode="&#58888;" d="M723.2 838.4C556.8 838.4 428.8 704 428.8 537.6c0-57.6 12.8-108.8 51.2-153.6 0-12.8 38.4-70.4 204.8-300.8 12.8-12.8 32-19.2 38.4-19.2 19.2 0 32 12.8 38.4 19.2C832 179.2 972.8 384 972.8 384c32 44.8 51.2 96 51.2 153.6C1024 704 889.6 838.4 723.2 838.4z m192-416c-12.8-12.8-115.2-166.4-192-262.4-51.2 76.8-172.8 256-185.6 262.4-19.2 38.4-38.4 76.8-38.4 115.2 0 128 96 224 224 224 115.2 0 224-96 224-224 0-38.4-12.8-76.8-32-115.2zM723.2 704C633.6 704 556.8 627.2 556.8 537.6c0-89.6 76.8-166.4 166.4-166.4 89.6 0 166.4 76.8 166.4 166.4 0 89.6-76.8 166.4-166.4 166.4z m0-256c-51.2 0-89.6 38.4-89.6 89.6 0 51.2 38.4 89.6 89.6 89.6s89.6-38.4 89.6-89.6c0-51.2-44.8-89.6-89.6-89.6zM192 710.4C83.2 710.4 0 620.8 0 512c0-38.4 6.4-70.4 32-102.4 0-6.4 25.6-44.8 134.4-198.4 6.4-6.4 19.2-12.8 25.6-12.8 12.8 0 19.2 6.4 25.6 12.8 44.8 64 140.8 198.4 140.8 198.4 19.2 32 25.6 64 25.6 102.4 0 108.8-83.2 198.4-192 198.4z m128-275.2c-6.4-6.4-76.8-108.8-128-172.8-32 51.2-115.2 166.4-121.6 172.8C57.6 460.8 44.8 486.4 44.8 512c0 83.2 64 147.2 147.2 147.2 76.8 0 147.2-64 147.2-147.2 0-25.6-6.4-51.2-19.2-76.8zM192 620.8c-57.6 0-108.8-51.2-108.8-108.8 0-57.6 51.2-108.8 108.8-108.8 57.6 0 108.8 51.2 108.8 108.8 0 57.6-51.2 108.8-108.8 108.8z m0-166.4c-32 0-57.6 25.6-57.6 57.6s25.6 57.6 57.6 57.6 57.6-25.6 57.6-57.6-25.6-57.6-57.6-57.6zM300.8 115.2H89.6c-12.8 0-25.6 12.8-25.6 25.6s12.8 25.6 25.6 25.6h211.2c12.8 0 25.6-12.8 25.6-25.6s-12.8-25.6-25.6-25.6zM832-70.4H620.8c-19.2 0-38.4 12.8-38.4 38.4s19.2 32 38.4 32H832c19.2 0 38.4-12.8 38.4-38.4s-19.2-32-38.4-32z"  horiz-adv-x="1024" />

    
    <glyph glyph-name="hebinghangUNION-" unicode="&#58890;" d="M454.4 832H19.2c-6.4 0-19.2-6.4-19.2-19.2v-371.2c0-12.8 12.8-19.2 19.2-19.2h435.2c12.8 0 25.6 12.8 25.6 25.6V812.8c0 12.8-12.8 19.2-25.6 19.2z m-275.2-25.6c12.8 0 25.6-12.8 25.6-25.6s-12.8-19.2-19.2-19.2c-12.8 0-25.6 6.4-25.6 25.6-6.4 12.8 6.4 19.2 19.2 19.2z m-70.4 0c12.8 0 25.6-12.8 25.6-25.6s-12.8-25.6-25.6-25.6-19.2 12.8-19.2 19.2c0 19.2 6.4 32 19.2 32z m-64 0c12.8 0 25.6-12.8 25.6-25.6s-12.8-19.2-19.2-19.2c-12.8 0-25.6 6.4-25.6 25.6-6.4 12.8 6.4 19.2 19.2 19.2zM140.8 448H38.4s-6.4 0-6.4 6.4v64s0 6.4 6.4 6.4h108.8s6.4 0 6.4-6.4L140.8 448c6.4 0 6.4 0 0 0z m0 102.4H38.4s-6.4 0-6.4 6.4v64s0 6.4 6.4 6.4h108.8s6.4 0 6.4-6.4l-12.8-70.4c6.4 6.4 6.4 0 0 0z m0 108.8H38.4s-6.4 0-6.4 6.4v64s0 6.4 6.4 6.4h108.8s6.4 0 6.4-6.4l-12.8-70.4c6.4 0 6.4 0 0 0zM294.4 448H185.6s-6.4 0-6.4 6.4v64s0 6.4 6.4 6.4h108.8s6.4 0 6.4-6.4L294.4 448c6.4 0 0 0 0 0z m6.4 102.4H185.6s-6.4 0-6.4 6.4v64s0 6.4 6.4 6.4h108.8s6.4 0 6.4-6.4v-70.4z m-6.4 108.8H185.6s-6.4 0-6.4 6.4v64s0 6.4 6.4 6.4h108.8s6.4 0 6.4-6.4v-38.4l-6.4-32c6.4 0 0 0 0 0zM441.6 448H332.8s-6.4 0-6.4 6.4v64s0 6.4 6.4 6.4h108.8s6.4 0 6.4-6.4L441.6 448c6.4 0 0 0 0 0z m0 102.4H332.8s-6.4 0-6.4 6.4v64s0 6.4 6.4 6.4h108.8s6.4 0 6.4-6.4l-6.4-70.4c6.4 6.4 0 0 0 0zM448 659.2s-6.4 0 0 0H332.8s-6.4 0-6.4 6.4v64s0 6.4 6.4 6.4h108.8s6.4 0 6.4-6.4v-70.4zM998.4 320H569.6c-12.8 0-25.6-6.4-25.6-19.2v-371.2c0-12.8 12.8-19.2 19.2-19.2h435.2c12.8 0 25.6 12.8 25.6 25.6V300.8c0 12.8-12.8 19.2-25.6 19.2z m-275.2-25.6c12.8 0 25.6-12.8 25.6-25.6s-12.8-19.2-19.2-19.2c-12.8 0-25.6 6.4-25.6 25.6 0 12.8 6.4 19.2 19.2 19.2z m-64 0c12.8 0 25.6-12.8 25.6-25.6s-12.8-25.6-25.6-25.6-19.2 12.8-19.2 19.2c-6.4 19.2 6.4 32 19.2 32z m-70.4 0c12.8 0 25.6-12.8 25.6-25.6s-12.8-19.2-19.2-19.2c-12.8 0-25.6 6.4-25.6 25.6 0 12.8 6.4 19.2 19.2 19.2z m102.4-358.4H582.4s-6.4 0-6.4 6.4v64s0 6.4 6.4 6.4h108.8s6.4 0 6.4-6.4l-6.4-70.4z m0 102.4H582.4s-6.4 0-6.4 6.4v64s0 6.4 6.4 6.4h108.8s6.4 0 6.4-6.4l-6.4-70.4c0 6.4 0 0 0 0z m0 108.8H582.4s-6.4 0-6.4 6.4v70.4s0 6.4 6.4 6.4h108.8s6.4 0 6.4-6.4l-6.4-76.8z m147.2-211.2h-108.8s-6.4 0-6.4 6.4v64s0 6.4 6.4 6.4h108.8s6.4 0 6.4-6.4l-6.4-70.4c6.4 0 6.4 0 0 0z m6.4 102.4h-108.8s-6.4 0-6.4 6.4v64s0 6.4 6.4 6.4h108.8s6.4 0 6.4-6.4v-70.4z m-6.4 108.8h-108.8s-6.4 0-6.4 6.4v64s0 6.4 6.4 6.4h108.8s6.4 0 6.4-6.4v-38.4l-6.4-32c6.4 0 6.4 0 0 0z m147.2-211.2h-108.8s-6.4 0-6.4 6.4v64s0 6.4 6.4 6.4h108.8s6.4 0 6.4-6.4l-6.4-70.4c6.4 0 6.4 0 0 0z m0 102.4h-108.8s-6.4 0-6.4 6.4v64s0 6.4 6.4 6.4h108.8s6.4 0 6.4-6.4l-6.4-70.4c6.4 6.4 6.4 0 0 0z m6.4 108.8l-108.8-6.4s-6.4 0-6.4 6.4v64s0 6.4 6.4 6.4h108.8s6.4 0 6.4-6.4l-6.4-64zM569.6 384h-44.8v38.4c0 6.4-6.4 12.8-12.8 12.8s-12.8-6.4-12.8-12.8V384h-44.8c-6.4 0-12.8-6.4-12.8-12.8s6.4-19.2 12.8-19.2h38.4v-38.4c0-6.4 6.4-12.8 12.8-12.8s12.8 6.4 12.8 12.8v38.4h38.4c6.4 0 12.8 6.4 12.8 12.8S576 384 569.6 384z"  horiz-adv-x="1024" />

    
    <glyph glyph-name="xierugongzuobiao-" unicode="&#58891;" d="M454.4 6.4h-51.2c-6.4 0-6.4 6.4-6.4 6.4v140.8c0 6.4 6.4 6.4 6.4 6.4h211.2l96 96V377.6c0 6.4 6.4 6.4 6.4 6.4H832l70.4 70.4h-185.6c-6.4 0-6.4 6.4-6.4 6.4V601.6c0 6.4 6.4 6.4 6.4 6.4h230.4c6.4 0 6.4-6.4 6.4-6.4v-96L1024 576V787.2c0 25.6-19.2 44.8-51.2 44.8H44.8c-25.6 0-44.8-19.2-44.8-44.8v-800c0-32 19.2-51.2 44.8-51.2H384l70.4 70.4z m185.6 224H403.2c-6.4 0-6.4 6.4-6.4 6.4V377.6c0 6.4 6.4 6.4 6.4 6.4h230.4c0 6.4 6.4 0 6.4-6.4v-147.2z m0 371.2v-140.8c0-6.4-6.4-6.4-6.4-6.4H403.2c-6.4 0-6.4 6.4-6.4 6.4V601.6c0 6.4 6.4 6.4 6.4 6.4h230.4c0 6.4 6.4 0 6.4-6.4zM236.8 774.4c25.6 0 51.2-19.2 51.2-51.2 0-25.6-25.6-51.2-51.2-51.2-25.6 6.4-44.8 32-44.8 51.2 0 32 19.2 51.2 44.8 51.2z m-192-44.8c0 25.6 19.2 51.2 51.2 51.2 25.6 0 51.2-25.6 51.2-51.2s-19.2-44.8-44.8-44.8c-32-6.4-57.6 12.8-57.6 44.8zM320 12.8c0-6.4-6.4-6.4-6.4-6.4H76.8c-6.4 0-6.4 6.4-6.4 6.4v140.8c0 6.4 6.4 6.4 6.4 6.4h230.4c6.4 0 6.4-6.4 6.4-6.4v-140.8z m0 224c0-6.4-6.4-6.4-6.4-6.4H76.8c-6.4 0-6.4 6.4-6.4 6.4V377.6c0 6.4 6.4 6.4 6.4 6.4h230.4c6.4 6.4 12.8 0 12.8-6.4v-140.8z m0 224c0-6.4-6.4-6.4-6.4-6.4H76.8c-6.4 0-6.4 6.4-6.4 6.4V601.6c0 6.4 6.4 6.4 6.4 6.4h230.4c6.4 6.4 12.8 0 12.8-6.4v-140.8z m64 313.6c25.6 0 51.2-25.6 51.2-51.2-6.4-19.2-25.6-44.8-51.2-44.8s-51.2 19.2-51.2 51.2c0 25.6 25.6 44.8 51.2 44.8zM748.8 204.8l-44.8-44.8-38.4-38.4-44.8-44.8c-6.4-6.4-12.8-19.2-19.2-25.6 0 0-6.4-6.4-6.4-19.2 0-6.4-6.4-19.2-6.4-25.6 0-12.8-6.4-19.2-6.4-25.6-6.4-6.4-6.4-19.2-6.4-19.2v-19.2c6.4-6.4 12.8-6.4 19.2-6.4 6.4 0 12.8 0 19.2 6.4 6.4 0 19.2 6.4 32 6.4s19.2 6.4 32 12.8 19.2 6.4 19.2 6.4c6.4 0 6.4 6.4 12.8 6.4l12.8 12.8 12.8 12.8 25.6 25.6 192 192L857.6 320c-38.4-44.8-76.8-83.2-108.8-115.2zM1024 300.8c0 6.4 0 19.2-6.4 25.6-6.4 12.8-12.8 19.2-19.2 32-6.4 12.8-19.2 19.2-25.6 19.2-6.4 0-12.8 6.4-25.6 6.4s-19.2 0-32-12.8c-6.4 0-6.4-6.4-12.8-12.8l-12.8-12.8 96-96 6.4 6.4 6.4 6.4c0 6.4 6.4 6.4 12.8 12.8 12.8 6.4 12.8 12.8 12.8 25.6z"  horiz-adv-x="1024" />

    
    <glyph glyph-name="tongchuhangfenxi--" unicode="&#58894;" d="M570.59456 435.2l-115.2 38.4L384.99456 608c-6.4 6.4-12.8 6.4-12.8 12.8l-6.4 12.8c-32 25.6-70.4 32-108.8 12.8l-204.8-64c-19.2-6.4-32-25.6-32-44.8L0.99456 384c-6.4-25.6 19.2-51.2 44.8-57.6h6.4c25.6 0 44.8 19.2 44.8 44.8l12.8 121.6 76.8 25.6c-12.8-32-25.6-57.6-38.4-83.2-12.8-38.4-12.8-89.6 6.4-128L20.19456 0c-12.8-32 0-70.4 32-83.2 12.8 6.4 19.2 0 32 0 25.6 0 44.8 12.8 57.6 38.4l96 224c57.6-108.8 128-230.4 128-236.8 12.8-19.2 32-32 57.6-32 6.4 0 19.2 6.4 32 6.4 32 19.2 44.8 57.6 25.6 83.2-6.4 6.4-108.8 198.4-179.2 320l57.6 128 25.6-38.4c0-12.8 12.8-12.8 25.6-19.2l134.4-51.2c6.4 0 12.8-6.4 19.2-6.4 19.2 0 38.4 12.8 44.8 32 0 32-12.8 57.6-38.4 70.4M365.79456 672c51.2 0 96 44.8 96 96S416.99456 864 365.79456 864 269.79456 819.2 269.79456 768s44.8-96 96-96M992.99456 435.2l-115.2 44.8-70.4 134.4c-6.4 6.4-6.4 6.4-6.4 12.8l-6.4 6.4c-32 32-70.4 32-108.8 19.2L468.19456 582.4c-12.8-6.4-25.6-25.6-32-44.8L416.99456 384c0-25.6 19.2-51.2 44.8-57.6h6.4c25.6 0 44.8 19.2 44.8 44.8l12.8 121.6 76.8 25.6c-12.8-32-25.6-57.6-32-83.2-19.2-38.4-19.2-89.6 6.4-128L442.59456 0c-12.8-32 0-70.4 32-83.2 12.8 6.4 19.2 0 32 0 25.6 0 44.8 12.8 57.6 38.4l96 224c57.6-108.8 128-230.4 128-236.8 12.8-19.2 32-32 57.6-32 6.4 0 19.2 6.4 32 6.4 32 19.2 44.8 57.6 25.6 83.2-6.4 6.4-108.8 198.4-179.2 320l57.6 128 19.2-38.4c6.4-12.8 19.2-19.2 25.6-19.2l134.4-51.2c6.4 0 12.8-6.4 19.2-6.4 19.2 0 38.4 12.8 44.8 32 6.4 32-6.4 57.6-32 70.4m-211.2 236.8c51.2 0 96 44.8 96 96S832.99456 864 781.79456 864s-96-44.8-96-96c6.4-51.2 44.8-96 96-96"  horiz-adv-x="1026" />

    
    <glyph glyph-name="tongchuhangfenxi-" unicode="&#58895;" d="M704 307.2c0-6.4 6.4-108.8-166.4-192-19.2-12.8-32-38.4-19.2-57.6 6.4-19.2 19.2-25.6 38.4-25.6 6.4 0 12.8 0 19.2 6.4 140.8 64 192 147.2 204.8 204.8 51.2-25.6 121.6-76.8 134.4-172.8 0-25.6 25.6-38.4 44.8-38.4 25.6 6.4 38.4 25.6 32 51.2-19.2 134.4-115.2 204.8-185.6 236.8-6.4 25.6-12.8 44.8-12.8 57.6 57.6-32 128-44.8 204.8-6.4 25.6 12.8 32 38.4 19.2 64-12.8 19.2-32 32-57.6 19.2-102.4-51.2-185.6 44.8-185.6 51.2-6.4 6.4-19.2 12.8-38.4 12.8-64-12.8-179.2-64-179.2-192 0-25.6 19.2-44.8 38.4-44.8 25.6 0 38.4 19.2 38.4 44.8 0 44.8 25.6 70.4 57.6 89.6 0-25.6 0-57.6 12.8-89.6 6.4-6.4 6.4-12.8 0-19.2zM857.6 646.4c0-51.2-38.4-89.6-83.2-89.6s-83.2 38.4-83.2 89.6c0 51.2 38.4 89.6 83.2 89.6s83.2-38.4 83.2-89.6zM192 307.2c0-6.4 6.4-108.8-166.4-192-19.2-12.8-32-38.4-19.2-57.6 6.4-19.2 19.2-25.6 38.4-25.6 6.4 0 12.8 0 19.2 6.4 140.8 64 192 147.2 204.8 204.8 51.2-25.6 121.6-76.8 134.4-172.8 6.4-25.6 25.6-38.4 44.8-38.4 25.6 6.4 38.4 25.6 32 51.2-12.8 134.4-115.2 204.8-179.2 236.8-12.8 25.6-12.8 44.8-19.2 57.6 57.6-32 128-44.8 204.8-6.4 19.2 12.8 25.6 38.4 19.2 64-12.8 19.2-38.4 25.6-57.6 19.2-96-57.6-185.6 44.8-185.6 51.2-12.8 6.4-25.6 12.8-38.4 12.8-64-12.8-179.2-64-179.2-192 0-25.6 19.2-44.8 38.4-44.8 25.6 0 44.8 19.2 44.8 44.8 0 44.8 25.6 70.4 57.6 89.6 0-25.6 0-57.6 12.8-89.6-6.4-6.4-6.4-12.8-6.4-19.2zM339.2 646.4c0-51.2-38.4-89.6-83.2-89.6-44.8 0-83.2 38.4-83.2 89.6 0 51.2 38.4 89.6 83.2 89.6 51.2 0 83.2-38.4 83.2-89.6z"  horiz-adv-x="1024" />

    
    <glyph glyph-name="tongshangwangfenxi--" unicode="&#58896;" d="M480 153.6l25.6-25.6c6.4-6.4 19.2-6.4 25.6 0 0 0 6.4 6.4 6.4 12.8s0 6.4-6.4 12.8l-25.6 25.6c-6.4 6.4-19.2 6.4-25.6 0-6.4-12.8-6.4-19.2 0-25.6z m0 0M544 89.6l57.6-57.6c70.4-70.4 179.2-64 249.6 6.4 0 0 6.4 6.4 6.4 12.8s0 6.4-6.4 12.8-19.2 6.4-25.6 0c-25.6-25.6-64-44.8-102.4-44.8-38.4 0-70.4 12.8-102.4 38.4l-57.6 57.6c-6.4 6.4-19.2 6.4-25.6 0 0-6.4 0-19.2 6.4-25.6z m0 0M25.6 883.2C6.4 876.8 0 864 0 844.8s19.2-32 38.4-25.6c19.2 0 76.8 6.4 108.8-19.2 12.8-12.8 25.6-25.6 25.6-51.2 6.4-89.6 51.2-134.4 83.2-153.6-44.8-44.8-64-102.4-64-166.4s25.6-128 70.4-172.8l300.8-300.8c96-96 249.6-96 345.6 0l51.2 51.2c44.8 44.8 70.4 108.8 70.4 172.8 0 64-25.6 128-70.4 172.8l-300.8 300.8c-96 96-249.6 96-345.6 0l-12.8-12.8c-19.2 12.8-57.6 38.4-64 115.2-6.4 38.4-19.2 70.4-51.2 96C121.6 896 32 883.2 25.6 883.2z m281.6-582.4c-32 32-51.2 76.8-51.2 128 0 44.8 19.2 96 51.2 128l12.8 12.8 64-70.4c-6.4-19.2-6.4-44.8 12.8-57.6l51.2-51.2c12.8-12.8 25.6-12.8 38.4-12.8 6.4 0 12.8 0 25.6 6.4l19.2-19.2c-57.6-57.6-121.6-108.8-153.6-128l-70.4 64z m134.4 185.6l51.2-51.2c6.4-6.4 6.4-19.2 0-25.6h-12.8c-6.4 0-12.8 0-12.8 6.4l-51.2 44.8c0 6.4-6.4 12.8-6.4 12.8 0 6.4 0 12.8 6.4 12.8 6.4 12.8 19.2 12.8 25.6 0z m467.2-185.6c32-32 51.2-76.8 51.2-128 0-44.8-19.2-96-51.2-128l-51.2-44.8c-70.4-70.4-185.6-70.4-256 0l-211.2 211.2c76.8 51.2 262.4 230.4 300.8 300.8l217.6-211.2zM608 601.6l64-64c-6.4-19.2-64-83.2-128-153.6l-19.2 19.2c6.4 6.4 6.4 12.8 6.4 25.6s-6.4 25.6-12.8 38.4L467.2 512c-12.8 19.2-38.4 19.2-57.6 12.8l-70.4 64 12.8 12.8c70.4 70.4 185.6 70.4 256 0z m0 0"  horiz-adv-x="1030" />

    
    <glyph glyph-name="tongshangwangfenxi-" unicode="&#58897;" d="M512 896C230.4 896 0 665.6 0 384s230.4-512 512-512 512 230.4 512 512-230.4 512-512 512z m0-953.6c-243.2 0-441.6 198.4-441.6 441.6 0 243.2 198.4 441.6 441.6 441.6s441.6-198.4 441.6-441.6c0-243.2-198.4-441.6-441.6-441.6zM480 185.6c-44.8 6.4-96 19.2-140.8 32-19.2 57.6-32 115.2-32 160s12.8 102.4 25.6 160c64 19.2 128 32 179.2 32 44.8 0 96-12.8 153.6-25.6 12.8-51.2 25.6-102.4 25.6-147.2l64-25.6v6.4c0 44.8-12.8 96-25.6 147.2 76.8-25.6 153.6-57.6 179.2-70.4-6.4 25.6-12.8 51.2-19.2 70.4-38.4 19.2-108.8 44.8-185.6 70.4-19.2 70.4-44.8 140.8-64 172.8-19.2 6.4-44.8 12.8-70.4 19.2 12.8-25.6 44.8-96 70.4-172.8-44.8 6.4-89.6 19.2-128 19.2-44.8 0-102.4-12.8-153.6-25.6 25.6 76.8 57.6 147.2 70.4 172.8l-76.8-19.2c-19.2-38.4-44.8-102.4-64-172.8-64-25.6-121.6-51.2-160-64-6.4-25.6-12.8-51.2-19.2-70.4 32 6.4 89.6 32 160 57.6-12.8-44.8-25.6-96-25.6-134.4 0-38.4 6.4-89.6 19.2-134.4-64 25.6-121.6 44.8-153.6 57.6 6.4-25.6 12.8-51.2 25.6-70.4 38.4-12.8 89.6-38.4 147.2-57.6 19.2-57.6 44.8-115.2 57.6-153.6 25.6-12.8 51.2-19.2 76.8-25.6l-64 160c51.2-12.8 102.4-25.6 147.2-25.6l-19.2 57.6zM774.4 339.2L428.8 454.4l115.2-345.6 44.8 160 140.8-140.8 32 32-147.2 134.4 160 44.8z"  horiz-adv-x="1024" />

    
    <glyph glyph-name="tongzhudianfenxi-" unicode="&#58898;" d="M192 729.6h89.6V640H192zM192 576h89.6v-89.6H192zM352 576h89.6v-89.6H352zM352 729.6h89.6V640H352zM966.4-64V435.2c0 32-25.6 57.6-57.6 57.6H640v-57.6h243.2c12.8 0 25.6-12.8 25.6-25.6v-448c0-12.8-12.8-25.6-25.6-25.6H569.6V832c0 32-25.6 57.6-57.6 57.6H115.2C83.2 889.6 57.6 864 57.6 832v-896H0v-57.6h1024V-64h-57.6z m-460.8 0h-384V806.4c0 12.8 6.4 25.6 19.2 25.6h345.6c12.8 0 25.6-12.8 25.6-25.6V-64z m0 0"  horiz-adv-x="1024" />

    
    <glyph glyph-name="renyuanshilianfenxi-" unicode="&#58899;" d="M25.6 467.2c6.4-6.4 12.8-12.8 25.6-12.8l268.8-19.2c19.2 0 38.4 12.8 38.4 32s-12.8 38.4-32 38.4L51.2 531.2c-19.2 0-32-12.8-38.4-32 0-12.8 6.4-19.2 12.8-32zM428.8 531.2c6.4 0 19.2 6.4 25.6 12.8 6.4 6.4 6.4 19.2 6.4 25.6L428.8 864C422.4 883.2 409.6 896 390.4 896c-12.8 0-19.2-6.4-25.6-12.8-6.4-6.4-12.8-19.2-6.4-25.6l32-294.4c0-12.8 6.4-19.2 12.8-25.6 6.4-6.4 19.2-6.4 25.6-6.4zM358.4-128c64 0 121.6 25.6 166.4 70.4l416 416c44.8 44.8 64 96 70.4 160 0 57.6-19.2 115.2-64 160-38.4 38.4-96 64-160 64-57.6 0-115.2-25.6-160-70.4L544 569.6c-12.8-12.8-12.8-38.4 0-51.2 12.8-12.8 38.4-12.8 51.2 0l89.6 89.6c32 32 70.4 44.8 108.8 51.2 38.4 0 76.8-12.8 102.4-38.4 25.6-25.6 38.4-64 38.4-102.4 0-38.4-19.2-76.8-44.8-108.8l-416-416c-32-32-70.4-44.8-108.8-51.2-38.4 0-76.8 12.8-102.4 38.4-25.6 25.6-38.4 64-38.4 102.4 0 38.4 19.2 76.8 51.2 108.8l89.6 89.6c12.8 12.8 12.8 38.4 0 51.2-12.8 12.8-38.4 12.8-51.2 0l-89.6-89.6c-44.8-44.8-70.4-96-70.4-160 0-57.6 19.2-115.2 64-160 32-32 83.2-51.2 140.8-51.2z"  horiz-adv-x="1024" />

    
    <glyph glyph-name="biaolianjieJOIN" unicode="&#58900;" d="M512 896a512 512 0 1 1 512-512 512 512 0 0 1-512 512z m72.96-664.96l-119.68-120.32a160 160 0 1 0-226.56 226.56l56.96 56.96a30.08 30.08 0 1 0 42.24-42.24l-56.32-57.6a99.84 99.84 0 1 1 140.8-140.8l120.32 119.68a99.84 99.84 0 0 1-16.64 154.88 30.08 30.08 0 1 0 32.64 50.56 160 160 0 0 0 26.88-247.68z m200.32 199.68l-56.96-56.96a30.08 30.08 0 1 0-42.24 42.24l56.96 56.96A99.84 99.84 0 0 1 601.6 614.4L481.28 494.72a99.84 99.84 0 0 1 16.64-154.88 30.08 30.08 0 0 0-32.64-50.56 160 160 0 0 0-26.88 247.68l120.32 120.32a160 160 0 1 0 226.56-226.56z"  horiz-adv-x="1024" />

    
    <glyph glyph-name="shujuguolv" unicode="&#58901;" d="M512 896a512 512 0 1 1 512-512 512 512 0 0 1-512 512z m64-810.88a21.12 21.12 0 0 0-42.88 0V384a21.12 21.12 0 0 0 6.4 15.36l219.52 219.52H264.96l219.52-219.52a21.12 21.12 0 0 0 6.4-15.36v-384A21.12 21.12 0 0 0 448 0V375.04l-249.6 249.6a21.12 21.12 0 0 0 15.36 36.48h597.12a21.12 21.12 0 0 0 15.36-36.48L576 375.04z m234.88 21.12h-149.76a21.12 21.12 0 0 0 0 42.88h149.12a21.12 21.12 0 1 0 0-42.88z m0 106.88h-149.76a21.12 21.12 0 0 0 0 42.88h149.12a21.12 21.12 0 0 0 0-42.88z m0 106.88h-149.76a21.12 21.12 0 0 0 0 42.88h149.12a21.12 21.12 0 0 0 0-42.88z"  horiz-adv-x="1024" />

    
    <glyph glyph-name="SQLsuanzi" unicode="&#58902;" d="M657.92 533.76H591.36V652.8h-17.92v-135.68h84.48v16.64zM251.52 89.6h520.96V461.44H251.52z m300.8 244.48h43.52l53.12-54.4-53.12-56.32h-43.52l55.68 55.68z m-128 0h43.52l-55.68-55.68 55.68-55.68h-40.96l-52.48 56.32zM364.8 544a22.4 22.4 0 0 0-10.88-8.96 42.24 42.24 0 0 0-17.92-3.2 64 64 0 0 0-21.12 4.48 30.08 30.08 0 0 0-13.44 10.24 37.12 37.12 0 0 0-5.76 16.64h-16.64a57.6 57.6 0 0 1 7.68-24.32 54.4 54.4 0 0 1 19.84-15.36 86.4 86.4 0 0 1 31.36-5.76 64 64 0 0 1 25.6 5.76 38.4 38.4 0 0 1 20.48 12.8 33.28 33.28 0 0 1 6.4 19.84A37.12 37.12 0 0 1 384 576a44.16 44.16 0 0 1-17.92 13.44 213.76 213.76 0 0 1-30.08 8.96 98.56 98.56 0 0 0-26.88 8.96 17.92 17.92 0 0 0-5.76 12.16 16 16 0 0 0 7.68 14.72 32.64 32.64 0 0 0 23.04 5.76 35.84 35.84 0 0 0 24.32-7.68 27.52 27.52 0 0 0 8.96-18.56H384a36.48 36.48 0 0 1-6.4 21.12 38.4 38.4 0 0 1-17.92 14.72 64 64 0 0 1-26.88 4.48 59.52 59.52 0 0 1-24.32-4.48 38.4 38.4 0 0 1-17.92-14.72 37.12 37.12 0 0 1-5.76-18.56 33.28 33.28 0 0 1 5.76-16.64 40.32 40.32 0 0 1 14.72-12.16 92.16 92.16 0 0 1 25.6-8.96l24.32-6.4a25.6 25.6 0 0 0 12.16-7.68 8.32 8.32 0 0 0 0-10.24 21.12 21.12 0 0 0-2.56-10.24zM512 896a512 512 0 1 1 512-512 512 512 0 0 1-512 512z m203.52-192l83.2-136.32h-83.2z m84.48-233.6V64h-576V704h469.76v-153.6h106.24zM443.52 523.52a64 64 0 0 1 64 0 96.64 96.64 0 0 1 28.8-16.64l5.76 12.16a78.72 78.72 0 0 0-23.04 12.16 64 64 0 0 1 15.36 23.04 84.48 84.48 0 0 1 5.76 30.08 77.44 77.44 0 0 1-7.68 36.48A64 64 0 0 1 512 645.76a64 64 0 0 1-64 0 55.04 55.04 0 0 1-23.04-24.32 98.56 98.56 0 0 1-8.96-36.48 77.44 77.44 0 0 1 7.68-36.48 64 64 0 0 1 19.84-24.96z m0 102.4A45.44 45.44 0 0 0 478.08 640a40.96 40.96 0 0 0 23.04-6.4 39.04 39.04 0 0 0 16.64-18.56 78.72 78.72 0 0 0 5.76-28.8 58.88 58.88 0 0 0-15.36-43.52 64 64 0 0 1-25.6 13.44l-4.48-13.44a51.2 51.2 0 0 0 17.92-7.68 46.08 46.08 0 0 0-17.92-3.2 42.24 42.24 0 0 0-30.08 12.8 54.4 54.4 0 0 0-13.44 39.68 55.04 55.04 0 0 0 13.44 41.6z"  horiz-adv-x="1024" />

    
    <glyph glyph-name="shujuduibi" unicode="&#58903;" d="M687.36 448a124.16 124.16 0 0 1-40.32 30.72 123.52 123.52 0 0 1-165.12-58.88 122.24 122.24 0 0 1-9.6-35.84 124.16 124.16 0 0 1 0-17.28v-4.48a128 128 0 0 1 0-13.44v-11.52A123.52 123.52 0 1 1 687.36 448zM490.88 332.8a108.16 108.16 0 0 0-5.12 33.28h83.2a16.64 16.64 0 0 0 0-33.28z m78.72-60.16h-31.36a109.44 109.44 0 0 0-35.2 33.28h64a16.64 16.64 0 0 0 1.92-32.64zM568.96 384H487.04a107.52 107.52 0 0 0 12.16 33.28h69.76a16.64 16.64 0 0 0 0-33.28z m78.08-115.2v192a110.08 110.08 0 0 0 40.32-39.04v-111.36a110.72 110.72 0 0 0-39.68-39.04zM512 896a512 512 0 1 1 512-512 512 512 0 0 1-512 512z m175.36-810.24H224V688h377.6l86.4-83.2v-84.48a177.92 177.92 0 0 1-40.32 17.92v46.08h-64v64H264.32V128h384v64a180.48 180.48 0 0 1 40.32 18.56zM320 420.48h102.4a177.28 177.28 0 0 1-7.04-36.48H320a16.64 16.64 0 0 0 0 36.48z m4.48 85.76h88.96a16.64 16.64 0 0 0 0-33.28H327.04a16.64 16.64 0 0 0 0 33.28zM320 366.08h94.08a183.04 183.04 0 0 1 0-33.28H320a16.64 16.64 0 0 0 0 33.28z m0-60.16h104.32a175.36 175.36 0 0 1 16-33.28H320a16.64 16.64 0 0 0 0 33.92z m93.44 220.8H327.04a16.64 16.64 0 0 0 0 33.28h86.4a16.64 16.64 0 0 0 0-33.28z m69.12-307.2h7.04a177.92 177.92 0 0 1 85.12-32H482.56a16.64 16.64 0 0 0 0 32z m204.8 10.88a163.84 163.84 0 0 0-40.32-19.84 165.12 165.12 0 0 0-56.96-8.96h-6.4a164.48 164.48 0 0 0-64 17.92 166.4 166.4 0 0 0-64 53.76 167.68 167.68 0 0 0-17.92 33.28 165.76 165.76 0 0 0-7.68 26.24v7.68 7.04 14.08 4.48a165.12 165.12 0 1 0 256-139.52z m139.52-149.76l-124.16 128 37.12 35.84 124.16-128z"  horiz-adv-x="1024" />

    
    <glyph glyph-name="xierugongzuobiao" unicode="&#58904;" d="M235.52 245.76l154.88 0 0-97.92-154.88 0 0 97.92ZM339.84 568.96a30.08 30.08 0 1 1-28.16 28.16 30.08 30.08 0 0 1 28.16-28.16zM282.24 597.12a30.08 30.08 0 1 1-26.24-28.16 30.08 30.08 0 0 1 26.24 28.16zM240.64 527.36a5.12 5.12 0 0 1-5.12-5.12v-88.32a5.12 5.12 0 0 1 5.12-5.12H384a5.12 5.12 0 0 1 5.12 5.12V522.24A5.12 5.12 0 0 1 384 527.36zM235.52 385.92l154.88 0 0-98.56-154.88 0 0 98.56ZM512 896a512 512 0 1 1 512-512 512 512 0 0 1-512 512z m158.08-734.72l-17.28-17.28-7.68-7.68L640 128l-8.96-5.76-13.44-5.76-18.56-6.4-23.04-2.56h-24.32a16 16 0 0 0 0 12.16v12.8c0 5.76 0 11.52 5.12 17.92l5.76 17.28a90.88 90.88 0 0 0 3.84 10.88 56.96 56.96 0 0 0 15.36 13.44l27.52 27.52 23.68 24.32 26.24 26.24 70.4 69.76 64-64z m154.24 153.6l-6.4-7.04-5.12-5.76-5.12-4.48-64 64 9.6 8.96 14.72 5.12a23.68 23.68 0 0 0 19.2 7.04 44.16 44.16 0 0 0 16.64-4.48 57.6 57.6 0 0 0 15.36-12.8 68.48 68.48 0 0 0 12.8-19.2 55.04 55.04 0 0 0 0-14.72 21.12 21.12 0 0 0-7.04-16.64z m7.04 192l-42.24-42.24v57.6a5.12 5.12 0 0 1-5.12 5.12H640a5.12 5.12 0 0 1-5.12-5.12v-88.32a5.12 5.12 0 0 1 5.12-5.12h115.84l-41.6-44.8H640a5.12 5.12 0 0 1-5.12-5.12V307.2l-64-64H442.24a5.12 5.12 0 0 1-5.12-5.12v-87.04a5.12 5.12 0 0 1 5.12-5.12h33.92l-43.52-43.52H222.08a30.08 30.08 0 0 0-30.08 31.36V634.24a30.08 30.08 0 0 0 30.08 30.08h579.84a30.08 30.08 0 0 0 30.08-30.08zM442.24 527.36a5.12 5.12 0 0 1-5.12-5.12v-88.32a5.12 5.12 0 0 1 5.12-5.12h144a5.12 5.12 0 0 1 5.12 5.12V522.24a5.12 5.12 0 0 1-5.12 5.12zM462.08 597.12a30.08 30.08 0 1 1-28.16-28.16 30.08 30.08 0 0 1 28.16 28.16zM442.24 384a5.12 5.12 0 0 1-5.12-5.12v-85.76a5.12 5.12 0 0 1 5.12-5.12h149.12V380.8A5.12 5.12 0 0 1 586.24 384z"  horiz-adv-x="1024" />

    
    <glyph glyph-name="hebinghangUNION" unicode="&#58906;" d="M336 545.28h-47.36v-44.8H364.8v41.6zM288.64 617.6v-48h73.6v45.44zM285.44 472.96l79.36 0 0-50.56-79.36 0 0 50.56ZM387.2 472.96l79.36 0 0-50.56-79.36 0 0 50.56ZM464 617.6H390.4v-48h73.6v45.44 2.56zM387.2 545.28l79.36 0 0-50.56-79.36 0 0 50.56ZM298.88 653.44a15.36 15.36 0 1 1-14.72-13.44 15.36 15.36 0 0 1 14.72 13.44zM182.4 472.96l79.36 0 0-50.56-79.36 0 0 50.56ZM206.08 653.44A15.36 15.36 0 1 1 192 640a15.36 15.36 0 0 1 14.08 13.44zM236.16 640a15.36 15.36 0 1 1-14.72 14.72 15.36 15.36 0 0 1 14.72-14.72zM611.2 286.72a15.36 15.36 0 1 1-14.72 14.72 15.36 15.36 0 0 1 14.72-14.72zM184.96 617.6v-48H256v45.44zM182.4 545.28l79.36 0 0-50.56-79.36 0 0 50.56ZM711.68 192h-47.36v-44.8h76.8V192zM762.88 120.96l79.36 0 0-50.56-79.36 0 0 50.56ZM663.68 265.6v-45.44h74.24v42.88zM673.92 301.44a15.36 15.36 0 1 1-14.72-14.72 15.36 15.36 0 0 1 14.72 14.72zM762.88 193.28l79.36 0 0-50.56-79.36 0 0 50.56ZM839.68 265.6H768v-45.44h74.24v42.88l-2.56 2.56zM512 896a512 512 0 1 1 512-512 512 512 0 0 1-512 512zM160 415.36v256a15.36 15.36 0 0 0 15.36 15.36h297.6a15.36 15.36 0 0 0 15.36-15.36v-256a15.36 15.36 0 0 0-15.36-15.36H175.36a15.36 15.36 0 0 0-15.36 15.36z m361.6-85.12a9.6 9.6 0 1 0-18.56 0V358.4h-28.8a9.6 9.6 0 0 0 0 18.56h28.16v28.8a9.6 9.6 0 1 0 18.56 0v-28.16h28.16a9.6 9.6 0 1 0 0-18.56h-27.52zM864 64a15.36 15.36 0 0 0-15.36-15.36H551.04a15.36 15.36 0 0 0-15.36 15.36V320a15.36 15.36 0 0 0 15.36 15.36h297.6a15.36 15.36 0 0 0 15.36-15.36zM661.12 120.96l79.36 0 0-50.56-79.36 0 0 50.56ZM581.76 301.44a15.36 15.36 0 1 1-14.72-14.72 15.36 15.36 0 0 1 14.72 14.72zM557.44 120.96l79.36 0 0-50.56-79.36 0 0 50.56ZM557.44 193.28l79.36 0 0-50.56-79.36 0 0 50.56ZM560.64 265.6v-45.44h73.6v42.88z"  horiz-adv-x="1024" />

    
    <glyph glyph-name="duqugongzuobiao" unicode="&#58907;" d="M240.64 527.36a5.12 5.12 0 0 1-5.12-5.12v-88.32a5.12 5.12 0 0 1 5.12-5.12H384a5.12 5.12 0 0 1 5.12 5.12V522.24A5.12 5.12 0 0 1 384 527.36zM462.08 597.12a30.08 30.08 0 1 1-28.16-28.16 30.08 30.08 0 0 1 28.16 28.16zM235.52 385.92l154.88 0 0-98.56-154.88 0 0 98.56ZM339.84 568.96a30.08 30.08 0 1 1-28.16 28.16 30.08 30.08 0 0 1 28.16-28.16zM235.52 245.76l154.88 0 0-97.92-154.88 0 0 97.92ZM282.24 597.12a30.08 30.08 0 1 1-26.24-28.16 30.08 30.08 0 0 1 26.24 28.16zM436.48 245.76l154.88 0 0-97.92-154.88 0 0 97.92ZM634.88 385.92l154.88 0 0-98.56-154.88 0 0 98.56ZM784 527.36H640a5.12 5.12 0 0 1-5.12-5.12v-88.32a5.12 5.12 0 0 1 5.12-5.12h144a5.12 5.12 0 0 1 5.12 5.12V522.24a5.12 5.12 0 0 1-5.12 5.12zM534.4 384H442.24a5.12 5.12 0 0 1-5.12-5.12v-85.76a5.12 5.12 0 0 1 5.12-5.12h149.12V380.8A5.12 5.12 0 0 1 586.24 384zM634.88 245.76l154.88 0 0-97.92-154.88 0 0 97.92ZM442.24 527.36a5.12 5.12 0 0 1-5.12-5.12v-88.32a5.12 5.12 0 0 1 5.12-5.12h144a5.12 5.12 0 0 1 5.12 5.12V522.24a5.12 5.12 0 0 1-5.12 5.12zM512 896a512 512 0 1 1 512-512 512 512 0 0 1-512 512z m320-762.24a30.08 30.08 0 0 0-30.08-30.08H222.08a30.08 30.08 0 0 0-30.08 30.08V634.24a30.08 30.08 0 0 0 30.08 30.08h579.84a30.08 30.08 0 0 0 30.08-30.08z"  horiz-adv-x="1024" />

    
    <glyph glyph-name="renyuanchudaofenxi" unicode="&#58908;" d="M411.52 518.4c-39.04-25.6-34.56-48-19.84-97.28a204.8 204.8 0 0 0 4.48-140.8 182.4 182.4 0 0 0-64-83.84 82.56 82.56 0 0 1-39.68-84.48 60.16 60.16 0 0 1 30.72-39.04 136.32 136.32 0 0 1 116.48-17.92c26.24 10.24 35.84 24.96 55.04 55.04a688.64 688.64 0 0 0 112.64 139.52c92.16 88.96 86.4 156.16 69.76 179.84C623.36 507.52 448 543.36 411.52 518.4zM377.6 611.84c14.08 0 30.08 21.76 30.08 53.12s-16 53.12-30.08 53.12-30.08-21.76-30.08-53.12 16-53.12 30.08-53.12zM624.64 593.28a32.64 32.64 0 0 1 35.2 22.4 30.72 30.72 0 0 1 0 24.32 15.36 15.36 0 0 1-9.6 8.32h-5.76a35.2 35.2 0 0 1-29.44-23.04 31.36 31.36 0 0 1 0-24.32 15.36 15.36 0 0 1 9.6-7.68zM507.52 625.28c8.32 0 23.68 12.8 28.16 37.76A52.48 52.48 0 0 1 530.56 704a10.88 10.88 0 0 1-6.4 0c-8.32 0-22.4-14.08-26.88-38.4a52.48 52.48 0 0 1 5.12-38.4 10.88 10.88 0 0 1 5.12-1.92zM795.52 459.52a9.6 9.6 0 0 1-7.04 0 24.32 24.32 0 0 1-15.36-5.76 20.48 20.48 0 0 1-8.32-13.44 5.76 5.76 0 0 1 0-4.48 17.92 17.92 0 0 1 22.4 3.2 20.48 20.48 0 0 1 8.32 13.44 5.76 5.76 0 0 1 0 4.48zM512 896a512 512 0 1 1 512-512 512 512 0 0 1-512 512z m268.16-288a38.4 38.4 0 0 0 19.2-27.52 55.68 55.68 0 0 0-15.36-45.44 72.96 72.96 0 0 0-52.48-24.96 46.72 46.72 0 0 0-23.04 5.76 38.4 38.4 0 0 0-19.2 27.52 55.68 55.68 0 0 0 14.72 45.44 64 64 0 0 0 76.16 19.2zM583.68 640a64 64 0 0 0 78.08 42.24 50.56 50.56 0 0 0 30.72-27.52 64 64 0 0 0 0-53.12 69.76 69.76 0 0 0-64-44.8 52.48 52.48 0 0 0-16 0 50.56 50.56 0 0 0-30.72 27.52A64 64 0 0 0 583.68 640zM460.8 675.2c7.68 42.24 37.76 71.04 68.48 64a45.44 45.44 0 0 0 30.08-19.84 88.32 88.32 0 0 0 10.88-64 73.6 73.6 0 0 0-64-64h-4.48a45.44 45.44 0 0 0-30.08 19.84 87.68 87.68 0 0 0-10.88 64zM377.6 753.92c36.48 0 64-39.04 64-88.96S414.08 576 377.6 576s-64 39.04-64 88.96 27.52 88.96 64 88.96z m256-529.92a657.92 657.92 0 0 1-108.8-133.12A141.44 141.44 0 0 0 448 23.04a136.96 136.96 0 0 0-49.28-8.96 186.88 186.88 0 0 0-98.56 30.08 90.88 90.88 0 0 0-46.72 64 116.48 116.48 0 0 0 53.12 113.28 147.84 147.84 0 0 1 53.76 69.12 170.88 170.88 0 0 1-5.12 118.4c-13.44 45.44-28.8 96 34.56 136.96S640 541.44 704 448c33.92-44.16 23.04-131.2-72.32-223.36z m179.2 192a59.52 59.52 0 0 0-37.12-14.08 44.16 44.16 0 0 0-33.28 14.08 40.96 40.96 0 0 0-12.16 32 55.68 55.68 0 0 0 21.12 37.76 51.2 51.2 0 0 0 70.4 0 40.96 40.96 0 0 0 10.24-30.72 55.68 55.68 0 0 0-21.12-40.96zM757.76 558.72a21.76 21.76 0 0 1 7.04 17.28h-5.76a37.12 37.12 0 0 1-26.24-13.44 21.76 21.76 0 0 1-7.04-16 27.52 27.52 0 0 1 32 12.16z"  horiz-adv-x="1024" />

    
    <glyph glyph-name="renyuanshilianfenxi" unicode="&#58912;" d="M512 896a512 512 0 1 1 512-512 512 512 0 0 1-512 512zM432.64 712.96a28.16 28.16 0 0 0 31.36-24.96l21.12-185.6a28.16 28.16 0 0 0-24.96-31.36 28.16 28.16 0 0 0-31.36 24.96l-21.12 185.6a28.16 28.16 0 0 0 24.96 31.36zM199.04 435.2A28.16 28.16 0 0 0 192 455.68a28.8 28.8 0 0 0 30.08 25.6l170.88-13.44a28.16 28.16 0 0 0 25.6-30.08 28.16 28.16 0 0 0-30.08-25.6l-170.24 13.44a28.16 28.16 0 0 0-19.2 9.6z m588.16-72.32l-262.4-262.4a153.6 153.6 0 0 0-108.16-45.44 136.96 136.96 0 0 0-139.52 143.36A152.96 152.96 0 0 0 320 301.44l58.24 58.24a28.16 28.16 0 0 0 42.24-39.68l-58.24-58.24a97.28 97.28 0 0 1-28.8-64 82.56 82.56 0 0 1 23.68-64 81.28 81.28 0 0 1 64-23.68 97.28 97.28 0 0 1 64 28.8l262.4 262.4a97.28 97.28 0 0 1 28.8 64A81.28 81.28 0 0 1 691.2 550.4a97.28 97.28 0 0 1-64-28.8l-58.24-58.24a28.16 28.16 0 0 0-39.68 39.68l58.24 58.24a153.6 153.6 0 0 0 103.68 45.44A136.96 136.96 0 0 0 832 466.56a153.6 153.6 0 0 0-45.44-103.68z"  horiz-adv-x="1024" />

    
    <glyph glyph-name="shikongbuyizhifenxi" unicode="&#58913;" d="M270.72 480m-42.88 0a42.88 42.88 0 1 1 85.76 0 42.88 42.88 0 1 1-85.76 0ZM270.72 589.44A107.52 107.52 0 0 1 161.28 480a135.04 135.04 0 0 1 19.2-56.96c4.48-4.48 64-90.24 90.24-128 38.4 47.36 90.24 123.52 95.36 128a128 128 0 0 1 14.08 56.96 110.72 110.72 0 0 1-109.44 109.44z m0-192A83.2 83.2 0 0 0 192 480a83.2 83.2 0 0 0 78.72 81.28A83.2 83.2 0 0 0 352 480a83.2 83.2 0 0 0-81.28-80.64zM512 896a512 512 0 1 1 512-512 512 512 0 0 1-512 512zM352.64 182.4H192a19.84 19.84 0 1 0 0 39.68h160.64a19.84 19.84 0 1 0 0-39.68z m41.6 221.44S320 304 289.92 256a24.96 24.96 0 0 0-19.2-9.6 35.84 35.84 0 0 0-19.2 9.6 1274.88 1274.88 0 0 0-99.84 147.84A112 112 0 0 0 128 480a144 144 0 0 0 142.72 147.84A148.48 148.48 0 0 0 418.56 480a144 144 0 0 0-23.68-76.16z m358.4-360.96H593.28a26.88 26.88 0 0 0 0 53.12h159.36a26.88 26.88 0 0 0 0-53.12zM859.52 384s-109.44-153.6-160.64-226.56a37.76 37.76 0 0 0-29.44-14.72 55.68 55.68 0 0 0-29.44 14.72A1955.84 1955.84 0 0 0 487.04 384 171.52 171.52 0 0 0 448 498.56a221.44 221.44 0 0 0 218.88 226.56A227.84 227.84 0 0 0 896 498.56 220.8 220.8 0 0 0 859.52 384zM669.44 498.56m-65.92 0a65.92 65.92 0 1 1 131.84 0 65.92 65.92 0 1 1-131.84 0ZM669.44 666.24a165.12 165.12 0 0 1-167.68-167.68 207.36 207.36 0 0 1 29.44-87.68c7.04-7.04 102.4-138.88 138.88-197.12 58.24 72.96 138.88 192 145.92 197.12a192 192 0 0 1 21.76 87.68 169.6 169.6 0 0 1-168.32 167.68z m0-291.84a128 128 0 0 0-124.16 124.16 128 128 0 0 0 124.16 124.16 128 128 0 0 0 124.16-124.16 128 128 0 0 0-124.16-124.16z"  horiz-adv-x="1024" />

    
    <glyph glyph-name="tongchuhangfenxi" unicode="&#58914;" d="M568.32 336a33.92 33.92 0 1 0-67.2 0 152.96 152.96 0 0 0 0 24.96 175.36 175.36 0 0 0-128 17.92 225.92 225.92 0 0 1 12.8-48 269.44 269.44 0 0 0 136.96-142.72c96.64 64 90.88 128 91.52 131.2a101.76 101.76 0 0 0 3.84 14.08 241.28 241.28 0 0 0-8.96 74.24 81.28 81.28 0 0 1-40.96-71.68zM512 896a512 512 0 1 1 512-512 512 512 0 0 1-512 512z m163.2-223.36a69.76 69.76 0 0 0 67.84-71.68 67.84 67.84 0 1 0-135.68 0 69.76 69.76 0 0 0 67.84 71.68z m-320 0a69.76 69.76 0 0 0 69.12-71.68 69.76 69.76 0 0 0-67.84-71.68 69.76 69.76 0 0 0-67.84 71.68 69.76 69.76 0 0 0 67.84 71.68z m504.96-296.96a170.88 170.88 0 0 0-166.4 0 225.92 225.92 0 0 1 12.8-48 256 256 0 0 0 151.04-192 35.2 35.2 0 0 0-28.8-40.32 33.92 33.92 0 0 0-38.4 30.08 192 192 0 0 1-113.28 140.8 265.6 265.6 0 0 0-144-154.24 33.28 33.28 0 0 0-23.04-16.64 31.36 31.36 0 0 0-11.52 0h-4.48a33.92 33.92 0 0 0-30.72 21.12 36.48 36.48 0 0 0 3.84 34.56 197.76 197.76 0 0 1-105.6 115.2A280.32 280.32 0 0 0 192 98.56a32 32 0 0 0-13.44 0 33.92 33.92 0 0 0-30.72 21.12 36.48 36.48 0 0 0 17.28 46.72c142.72 64 134.4 149.12 135.04 153.6a101.12 101.12 0 0 0 3.84 14.08 241.92 241.92 0 0 0-8.96 74.24 81.28 81.28 0 0 1-44.8-71.68 33.92 33.92 0 1 0-67.2 0 167.68 167.68 0 0 0 144.64 157.44 32.64 32.64 0 0 0 31.36-12.16A131.84 131.84 0 0 1 512 439.68a31.36 31.36 0 0 0 30.08 0 199.68 199.68 0 0 0 103.04 55.04 32.64 32.64 0 0 0 31.36-12.16 131.84 131.84 0 0 1 155.52-42.88 32.64 32.64 0 0 0 45.44-16 36.48 36.48 0 0 0-16-48z"  horiz-adv-x="1024" />

    
    <glyph glyph-name="tongshangwangfenxi" unicode="&#58915;" d="M512 896a512 512 0 1 1 512-512 512 512 0 0 1-512 512z m241.28-741.12l-29.44-29.44-139.52 138.88-43.52-161.28-114.56 348.8 348.16-114.56-161.28-43.52z m-22.4 368.64a597.76 597.76 0 0 0 23.68-146.56v-3.84l-64 23.68a704 704 0 0 1-27.52 147.84A607.36 607.36 0 0 1 512 568.32a672.64 672.64 0 0 1-177.28-33.28 624.64 624.64 0 0 1-26.24-158.08 625.28 625.28 0 0 1 28.16-158.72 799.36 799.36 0 0 1 143.36-30.72l26.24-64a630.4 630.4 0 0 0-147.2 24.96c22.4-64 46.72-128 64-159.36a401.28 401.28 0 0 0-74.24 24.96c-16.64 39.04-39.04 95.36-58.88 156.16-60.16 20.48-115.2 42.88-150.4 57.6a404.48 404.48 0 0 0-22.4 72.96c28.16-12.16 86.4-36.48 152.32-59.52a576 576 0 0 0-20.48 135.68A576 576 0 0 0 266.24 512c-68.48-23.68-128-48.64-154.88-60.8A405.12 405.12 0 0 0 128 523.52c35.2 15.36 92.8 39.04 156.8 60.8 23.04 71.04 49.92 136.32 64 174.72a405.76 405.76 0 0 0 72.96 23.04c-7.68-27.52-37.76-96.64-65.28-176.64A617.6 617.6 0 0 0 512 631.04a558.08 558.08 0 0 0 128-19.2 1936.64 1936.64 0 0 1-69.12 173.44A403.2 403.2 0 0 0 640 768c15.36-34.56 43.52-101.76 68.48-176.64A1937.28 1937.28 0 0 0 896 523.52a401.92 401.92 0 0 0 19.2-71.04c-33.28 13.44-104.32 44.16-184.32 71.04z"  horiz-adv-x="1024" />

    
    <glyph glyph-name="tongchuhangfenxi1" unicode="&#58916;" d="M550.4 418.56c5.76 14.72 14.72 35.84 23.68 56.32l-53.12-17.92v-28.8zM542.72 349.44H531.2L512 360.96a32 32 0 0 0-29.44-16.64A35.2 35.2 0 0 0 448 384h-8.32c-6.4 0-14.72 5.76-17.92 14.72l-14.72 26.88-40.96-87.68c35.84-60.16 85.12-151.04 108.16-192l80 185.6a106.88 106.88 0 0 0-7.68 21.12zM512 896a512 512 0 1 1 512-512 512 512 0 0 1-512 512z m186.88-183.04a64 64 0 1 0-64-64 64 64 0 0 0 64 64z m-288 0a64 64 0 1 0-64-64 64 64 0 0 0 64 64z m451.84-339.84a34.56 34.56 0 0 0-32.64-23.68h-11.52l-91.52 35.2c-6.4 0-14.72 5.76-17.92 14.72l-14.72 26.88-41.6-91.52C704 256 771.84 128 775.04 119.68a44.16 44.16 0 0 0-17.92-58.88 58.24 58.24 0 0 0-20.48-5.76 46.08 46.08 0 0 0-38.4 23.68s-47.36 88.32-88.32 161.92l-67.84-152.96a37.76 37.76 0 0 0-38.4-26.88 45.44 45.44 0 0 1-20.48 0 35.2 35.2 0 0 0-7.04 3.2 42.88 42.88 0 0 0-6.4-5.76 58.24 58.24 0 0 0-20.48-5.76 46.08 46.08 0 0 0-38.4 23.68S363.52 167.04 320 240.64l-64-152.96a37.76 37.76 0 0 0-38.4-26.88 45.44 45.44 0 0 1-20.48 0 43.52 43.52 0 0 0-20.48 56.32l89.6 212.48a110.72 110.72 0 0 0 0 91.52c5.76 14.72 14.72 35.84 23.68 56.32l-53.12-17.92-11.52-85.76a30.08 30.08 0 0 0-33.28-29.44 35.2 35.2 0 0 0-31.36 39.68l11.52 108.8a36.48 36.48 0 0 0 23.68 26.88l138.88 46.72a64 64 0 0 0 76.8-11.52l5.76-5.76s0-5.76 5.76-8.96l35.2-64V492.8a36.48 36.48 0 0 0 23.68 26.88l138.88 46.72a64 64 0 0 0 76.8-11.52l5.76-5.76s0-5.76 5.76-8.96L760.96 448l80-29.44a39.68 39.68 0 0 0 22.4-45.44z"  horiz-adv-x="1024" />

    
    <glyph glyph-name="tongshangwangfenxi1" unicode="&#58917;" d="M512 896a512 512 0 1 1 512-512 512 512 0 0 1-512 512z m320-792.96l-32.64-32.64a160 160 0 0 0-223.36 0L377.6 266.24a160 160 0 0 0 0 223.36A133.76 133.76 0 0 0 320 591.36a44.8 44.8 0 0 1-16.64 32.64A108.16 108.16 0 0 1 232.32 640a21.12 21.12 0 0 0-7.04 41.6 151.68 151.68 0 0 0 104.32-20.48 87.04 87.04 0 0 0 33.28-64 88.96 88.96 0 0 1 41.6-75.52l5.12 5.12a160 160 0 0 0 226.56 0L832 328.96a160 160 0 0 0 0-226.56zM512 436.48l32.64-32.64a33.28 33.28 0 0 0 6.4-39.04l12.16-12.16a500.48 500.48 0 0 1 85.12 99.2l-43.52 43.52a117.76 117.76 0 0 1-166.4 0l-8.96-8.96 44.16-44.16a33.92 33.92 0 0 0 38.4-5.76zM538.88 349.44a33.28 33.28 0 0 0-39.04 6.4l-32.64 32.64a34.56 34.56 0 0 0-5.76 39.04l-44.16 44.16-8.96-8.96a117.76 117.76 0 0 1 0-166.4l43.52-43.52A750.72 750.72 0 0 1 550.4 337.92zM481.92 421.12a12.8 12.8 0 0 1 0-17.92l30.08-32.64a12.8 12.8 0 0 1 17.92 0 12.8 12.8 0 0 1 0 17.92l-32.64 32.64a12.8 12.8 0 0 1-15.36 0zM803.2 299.52l-136.96 136.96a1024 1024 0 0 0-199.68-199.04l137.6-137.6a117.76 117.76 0 0 1 166.4 0l32.64 32.64a117.76 117.76 0 0 1 0 166.4z m-247.68-115.2a10.24 10.24 0 0 0-14.72 0l-16.64 16.64a10.88 10.88 0 1 0 14.72 14.72l16.64-16.64a10.88 10.88 0 0 0 0-14.72z m211.2-64a113.92 113.92 0 0 0-162.56 0l-39.04 39.04a10.88 10.88 0 0 0 14.72 14.72l39.04-39.04a88.96 88.96 0 0 1 64-26.88 97.92 97.92 0 0 1 64 29.44 10.88 10.88 0 1 0 14.72-14.72z"  horiz-adv-x="1024" />

    
    <glyph glyph-name="tongzhudianfenxi" unicode="&#58918;" d="M495.36 663.04H280.32a14.08 14.08 0 0 1-14.08-14.08v-544H512v544a14.08 14.08 0 0 1-16.64 14.08zM365.44 448h-54.4v54.4h54.4z m0 99.2h-54.4V601.6h54.4zM464.64 448h-54.4v54.4h54.4z m0 99.2h-54.4V601.6h54.4zM512 896a512 512 0 1 1 512-512 512 512 0 0 1-512 512z m320-832H192v37.76h36.48V665.6a35.2 35.2 0 0 0 35.2 38.4H512a35.2 35.2 0 0 0 35.2-35.2v-560.64h196.48a14.08 14.08 0 0 1 14.08 14.08V400.64a14.08 14.08 0 0 1-14.08 14.08H592.64v37.76h167.68a35.2 35.2 0 0 0 35.2-35.2v-312.32H832z"  horiz-adv-x="1024" />

    
    <glyph glyph-name="otherFile-icon" unicode="&#59015;" d="M510.01302083 906.66666666c-41.953125 0-76.5234375-34.453125-76.5234375-76.5234375v-806.953125c0-41.953125 34.453125-76.5234375 76.5234375-76.5234375h686.953125c41.953125 0 76.5234375 34.453125 76.5234375 76.5234375V602.2135416599999L990.01302083 906.66666666H510.01302083zM1273.48958333 600.6901041599999v-15H1081.53645833s-94.453125 19.453125-93.046875 101.953125c0 0 4.453125-86.953125 91.5234375-86.953125h193.4765625zM990.01302083 906.66666666v-219.0234375c0-24.0234375 16.5234375-86.953125 91.5234375-86.953125h191.953125L990.01302083 906.66666666zM832.51302083 617.3307291599999H548.68489583c-9.2578125 0-16.640625 7.5-16.640625 16.640625 0 9.2578125 7.5 16.640625 16.640625 16.640625h283.828125c9.2578125 0 16.640625-7.5 16.640625-16.640625 0.1171875-9.140625-7.3828125-16.640625-16.640625-16.640625zM986.02864583 410.02604166H548.68489583c-9.2578125 0-16.640625 7.5-16.640625 16.640625 0 9.2578125 7.5 16.640625 16.640625 16.640625h437.34375c9.2578125 0 16.640625-7.5 16.640625-16.640625 0.1171875-9.140625-7.3828125-16.640625-16.640625-16.640625zM1158.29427083 202.72135416000003H548.68489583c-9.2578125 0-16.640625 7.5-16.640625 16.640625 0 9.2578125 7.5 16.640625 16.640625 16.640625h609.609375c9.2578125 0 16.640625-7.5 16.640625-16.640625 0.1171875-9.140625-7.3828125-16.640625-16.640625-16.640625z"  horiz-adv-x="1707" />

    
    <glyph glyph-name="xiayiyiceng" unicode="&#58921;" d="M1024 896H0v-271.36h478.08V0L320 159.36l-46.08-48L512-128l243.84 238.72-48 46.08L544.64 0V625.92H1024z m-64-204.8H64V832h896zM1.28 419.2l407.04 1.92V487.68L0 486.4l1.28-67.2zM614.4 486.4l1.28-67.2L1024 421.12l-1.28 65.28H614.4z"  horiz-adv-x="1026" />

    
    <glyph glyph-name="youduiqi" unicode="&#58922;" d="M134.69648 246.063435a43.730438 43.730438 0 0 1 15.473848-53.822077 89.479203 89.479203 0 0 1 43.057661-10.764415h832.223866a46.421541 46.421541 0 0 1 49.785422 33.638798 45.07599 45.07599 0 0 1-16.819399 53.822077 84.769771 84.769771 0 0 1-40.366558 10.764416H191.882437c-42.384886 0-53.822077-16.819399-57.185957-33.638799zM3.505168 828.687419a51.130973 51.130973 0 0 1 53.149301-31.62047h962.069627a59.204285 59.204285 0 0 1 49.112645 21.528831 47.094317 47.094317 0 0 1 8.746088 42.384886C1069.182293 875.781737 1058.417878 895.965016 1018.05132 895.965016H55.981693a57.185957 57.185957 0 0 1-47.767094-22.874383 47.094317 47.094317 0 0 1-4.709431-44.403214zM207.356284 538.048203c0-30.274918 22.201607-49.112645 57.858733-49.112645h759.564062a46.421541 46.421541 0 0 1 51.80375 32.966022 43.730438 43.730438 0 0 1-13.45552 51.803749 82.078667 82.078667 0 0 1-41.712109 13.45552H265.215017a51.130973 51.130973 0 0 1-57.858733-49.112646zM259.832809-61.39518a45.07599 45.07599 0 0 1 13.45552-52.476525 74.005356 74.005356 0 0 1 37.675454-12.782743h710.451417a49.785421 49.785421 0 0 1 55.167629 49.112645 46.421541 46.421541 0 0 1-12.782744 33.638798 57.858733 57.858733 0 0 1-41.712109 15.473848H308.272679a47.767093 47.767093 0 0 1-48.43987-32.966023z"  horiz-adv-x="1080" />

    
    <glyph glyph-name="juzhong" unicode="&#58923;" d="M51.28588 895.964185a48.606674 48.606674 0 0 1-36.455005-14.709915A47.967113 47.967113 0 0 1 0.12096 844.799265a50.525359 50.525359 0 0 1 14.709915-37.094568 47.327551 47.327551 0 0 1 35.815444-15.349476H972.254441a47.327551 47.327551 0 0 1 35.815444 15.349476A49.885797 49.885797 0 0 1 1023.419361 844.799265a48.606674 48.606674 0 0 1-14.709914 36.455005 47.967113 47.967113 0 0 1-36.455006 14.709915zM204.78064 588.974664a48.606674 48.606674 0 0 1-36.455005-12.79123 47.967113 47.967113 0 0 1-14.709915-36.455005 50.525359 50.525359 0 0 1 14.709915-37.094567 47.327551 47.327551 0 0 1 35.815444-15.349476h613.97904a47.327551 47.327551 0 0 1 35.815444 15.349476 49.885797 49.885797 0 0 1 14.709915 37.094567 50.525359 50.525359 0 0 1-51.16492 51.16492zM51.28588 283.264267a47.327551 47.327551 0 0 1-35.815444-15.349476 49.885797 49.885797 0 0 1-15.349476-37.094567 48.606674 48.606674 0 0 1 14.709915-38.37369 47.967113 47.967113 0 0 1 36.455005-14.709915h920.968561a48.606674 48.606674 0 0 1 36.455006 14.709915 47.967113 47.967113 0 0 1 14.709914 38.37369 50.525359 50.525359 0 0 1-14.709914 37.094567 47.327551 47.327551 0 0 1-35.815445 15.349476zM204.78064-24.364815a47.327551 47.327551 0 0 1-35.815444-15.349476 49.885797 49.885797 0 0 1-14.709914-37.094567 50.525359 50.525359 0 0 1 51.16492-51.16492h613.97904a48.606674 48.606674 0 0 1 36.455006 14.709915 47.967113 47.967113 0 0 1 14.709914 36.455005 50.525359 50.525359 0 0 1-14.709914 37.094567 47.327551 47.327551 0 0 1-35.815444 15.349476z"  horiz-adv-x="1024" />

    
    <glyph glyph-name="zhankai" unicode="&#58924;" d="M1968.901521 805.433011L1068.194209-96.514945a106.695357 106.695357 0 0 0-151.358529 0L16.128368 805.433011A53.347678 53.347678 0 0 0 53.347678 896h1878.334533a53.347678 53.347678 0 0 0 37.21931-90.566989z"  horiz-adv-x="1985" />

    
    <glyph glyph-name="zuoduiqi" unicode="&#58925;" d="M972.160843 895.98336H51.855798A50.559178 50.559178 0 0 1 0.01664 844.144203a52.479147 52.479147 0 0 1 53.119137-51.839158h917.105097A51.839158 51.839158 0 0 1 1024 844.144203a50.559178 50.559178 0 0 1-51.839157 51.839157zM665.605824 485.750027a51.839158 51.839158 0 0 1 0 103.678315H51.855798A50.559178 50.559178 0 0 1 0.01664 537.589184a51.839158 51.839158 0 0 1 51.839158-51.839157zM972.160843 178.555018a51.839158 51.839158 0 1 1 0 103.678316H51.855798a50.559178 50.559178 0 0 1-51.839158-51.839158 51.839158 51.839158 0 0 1 51.839158-51.839158zM665.605824-128a51.839158 51.839158 0 0 1 0 103.678315H51.855798a50.559178 50.559178 0 0 1-51.839158-49.919189 53.119137 53.119137 0 0 1 53.119137-53.759126z"  horiz-adv-x="1024" />

    
    <glyph glyph-name="shangyiyiceng" unicode="&#58926;" d="M614.4 349.44l1.28-66.56L1024 284.16l-1.28 65.28H614.4zM1.28 284.16H409.6l-1.28 66.56L0 349.44l1.28-65.28zM0-128h1024v270.08H544.64V768l166.4-159.36 46.08 48L512 896 273.92 657.28l46.08-46.08L479.36 768v-625.92H0z m64 206.08h896v-139.52H64z"  horiz-adv-x="1025" />

    
    <glyph glyph-name="zhiyudiceng" unicode="&#58927;" d="M937.6 896h-261.76a86.4 86.4 0 0 1-86.4-86.4v-261.76a86.4 86.4 0 0 1 86.4-86.4h261.76A86.4 86.4 0 0 1 1024 547.84V809.6A86.4 86.4 0 0 1 937.6 896zM960 547.84a20.48 20.48 0 0 0-19.84-19.84h-264.32a19.84 19.84 0 0 0-19.84 19.84V809.6a20.48 20.48 0 0 0 19.84 22.4h261.76a20.48 20.48 0 0 0 19.84-19.84zM348.16 306.56H86.4A86.4 86.4 0 0 1 0 220.16v-261.76A86.4 86.4 0 0 1 86.4-128h261.76a86.4 86.4 0 0 1 86.4 86.4v261.76a86.4 86.4 0 0 1-86.4 86.4z m19.84-348.16a20.48 20.48 0 0 0-19.84-19.84H86.4a20.48 20.48 0 0 0-22.4 19.84v261.76a20.48 20.48 0 0 0 19.84 19.84h264.32a19.84 19.84 0 0 0 19.84-19.84zM832 399.36a33.28 33.28 0 0 1-33.28-33.28v-230.4a37.76 37.76 0 0 0-37.76-37.76H529.92a33.28 33.28 0 0 1 0-64h230.4a104.32 104.32 0 0 1 104.32 104.32V366.08a33.28 33.28 0 0 1-32.64 33.28zM527.36 704a33.28 33.28 0 0 1-33.28 33.28h-230.4a104.32 104.32 0 0 1-104.32-104.96v-230.4a33.28 33.28 0 0 1 64 0v230.4a37.76 37.76 0 0 0 37.76 37.76h230.4A33.28 33.28 0 0 1 527.36 704z"  horiz-adv-x="1024" />

    
    <glyph glyph-name="shanchu1" unicode="&#58928;" d="M877.744054 565.436802l-34.251771-650.137393a45.238188 45.238188 0 0 0-45.238188-42.653149H228.252921a45.238188 45.238188 0 0 0-45.238189 42.653149L149.409221 565.436802A45.238188 45.238188 0 0 0 239.239338 572.54566l32.312992-607.484244h484.694875l32.312992 607.484244a45.238188 45.238188 0 1 0 89.830117-4.523818zM999.240903 716.015344a45.238188 45.238188 0 0 0-45.238188-45.238189H75.08934a45.238188 45.238188 0 1 0 0 89.830117h246.871257V862.070066A32.312992 32.312992 0 0 0 358.797407 895.675578h310.204721a32.312992 32.312992 0 0 0 36.19055-33.605512v-101.462794h247.517517a45.238188 45.238188 0 0 0 45.238188-45.238188z m-595.851567 45.238188h222.313383v55.578346H400.804296zM417.607052 29.6874a41.360629 41.360629 0 0 1 38.12933 42.653149l-7.755118 485.987395a39.42185 39.42185 0 0 1-40.068109 38.77559 39.42185 39.42185 0 0 1-38.129331-40.06811l11.632677-487.279915a41.360629 41.360629 0 0 1 36.190551-40.068109z m185.476573 0a40.06811 40.06811 0 0 1 39.421849 39.421849l11.632677 485.341136a39.42185 39.42185 0 0 1-38.12933 40.71437 39.42185 39.42185 0 0 1-40.068109-38.129331l-9.693898-485.987395a40.06811 40.06811 0 0 1 38.12933-41.360629z m0 0"  horiz-adv-x="1024" />

    
    <glyph glyph-name="tianjiazhushi" unicode="&#58930;" d="M877.302373 896H146.537012A146.537012 146.537012 0 0 1 0 749.462988v-584.868249a146.537012 146.537012 0 0 1 146.537012-146.537012h145.897112l151.01631-137.578417A42.873274 42.873274 0 0 1 511.919693-84.966111v103.663738h365.38268A146.537012 146.537012 0 0 1 1023.839385 164.594739V749.462988A146.537012 146.537012 0 0 1 877.302373 896z m72.948556-731.405261a72.948556 72.948556 0 0 0-72.948556-72.948556H511.919693a72.948556 72.948556 0 0 1-72.948557-72.948556v-34.554579l-97.264741 88.306147a73.588456 73.588456 0 0 1-49.272271 19.196988H146.537012a72.948556 72.948556 0 0 0-72.948556 72.948556V749.462988a72.948556 72.948556 0 0 0 72.948556 73.588456h730.765361a72.948556 72.948556 0 0 0 72.948556-72.948556zM767.879539 603.565876H255.959846a36.474278 36.474278 0 0 1 0-72.948557h511.919693a36.474278 36.474278 0 0 1 0 72.948557zM767.879539 384.080307H255.959846a36.474278 36.474278 0 0 1 0-72.948556h511.919693A36.474278 36.474278 0 0 1 767.879539 384.080307z"  horiz-adv-x="1024" />

    
    <glyph glyph-name="fuzhi1" unicode="&#58931;" d="M1027.180399 809.309401A84.742171 84.742171 0 0 1 940.51227 895.97753H329.983446a85.384157 85.384157 0 0 1-86.668129-86.668129v-607.960879a85.384157 85.384157 0 0 1 86.026143-86.026143h626.578477A86.026143 86.026143 0 0 1 1027.180399 201.348522V809.309401z m-78.964295-32.099307v-542.478292a169.484342 169.484342 0 0 0 0-25.679446c0-8.987806-5.135889-12.839723-14.765682-13.481709H340.897211c-13.481709 0-17.333626 5.135889-18.617598 19.259584s0 14.123695 0 21.185543v539.268361a192.595843 192.595843 0 0 0 0 27.605405c0 8.34582 4.493903 11.555751 12.839723 12.839722h594.479169c11.555751 0 14.765681-5.135889 16.049654-17.333625s2.567945-14.123695 2.567945-21.185543zM745.990468 65.889445a41.729099 41.729099 0 0 1-28.24739-10.271778 42.371086 42.371086 0 0 1-12.839723-30.815335v-54.568822c0-14.765681-4.493903-16.69164-17.333626-17.975612H95.658504c-9.629792 0-13.481709 4.493903-14.765682 14.123695a192.595843 192.595843 0 0 0 0 26.321432v539.268361 21.827529c0 7.061848 4.493903 21.185543 19.259585 21.185543h64.198614A39.803141 39.803141 0 0 1 192.598411 639.183073a39.803141 39.803141 0 0 1-28.889376 11.55575H86.028711A84.742171 84.742171 0 0 1 0.002568 567.280624v-609.886837a84.742171 84.742171 0 0 1 86.026143-85.384157h613.096769a87.310116 87.310116 0 0 1 27.605404 4.493903 85.384157 85.384157 0 0 1 57.136767 80.890254v22.469515 41.729099a44.297044 44.297044 0 0 1-11.555751 32.099308 38.519169 38.519169 0 0 1-26.321432 12.197736zM819.176889 549.305012h-142.520925V689.899978a44.297044 44.297044 0 1 1-88.594087 0V549.305012H436.553146a43.655058 43.655058 0 0 1-32.741293-49.432933 44.297044 44.297044 0 0 1 43.655058-37.877182h140.594966V318.19a43.013072 43.013072 0 0 1 14.765681-33.383279 43.655058 43.655058 0 0 1 28.889376-11.555751 45.581016 45.581016 0 0 1 18.617599 3.851917 42.371086 42.371086 0 0 1 26.321431 41.087113V461.352911h140.594966a49.432933 49.432933 0 0 1 14.123695 0 44.297044 44.297044 0 0 1-12.839723 86.026143z"  horiz-adv-x="1027" />

    
    <glyph glyph-name="niantie" unicode="&#58932;" d="M866.665538 455.333907H533.332639A156.666463 156.666463 0 0 1 377.999508 296.000781v-266.666319A156.666463 156.666463 0 0 1 533.332639-127.998667h333.332899A156.666463 156.666463 0 0 1 1023.998667 29.334462V296.000781A156.666463 156.666463 0 0 1 866.665538 455.333907zM457.332738 296.000781A77.333233 77.333233 0 0 0 533.332639 376.000677h333.332899A77.333233 77.333233 0 0 0 944.665437 296.000781v-266.666319A77.333233 77.333233 0 0 0 866.665538-48.665437H533.332639A77.333233 77.333233 0 0 0 457.332738 29.334462zM288.666291 77.334399H133.33316a55.999927 55.999927 0 0 0-55.999927 55.999927V762.66684A55.999927 55.999927 0 0 0 133.33316 816.66677h566.665929a55.999927 55.999927 0 0 0 55.999927-55.999927v-219.999714a39.999948 39.999948 0 1 1 79.33323 0V762.66684a133.33316 133.33316 0 0 1-133.33316 133.33316H133.33316a133.33316 133.33316 0 0 1-133.33316-133.33316v-627.332516a133.33316 133.33316 0 0 1 133.33316-133.33316h153.333133a39.999948 39.999948 0 1 1 0 79.33323zM666.665799 707.333579H165.999784a39.999948 39.999948 0 0 1 0-77.999898H666.665799a39.999948 39.999948 0 1 1 0 79.33323zM394.666153 478.66721a39.999948 39.999948 0 0 1-39.999948 39.999948H165.999784a39.999948 39.999948 0 1 1 0-79.33323h188.666421a39.999948 39.999948 0 0 1 39.999948 39.333282zM291.332954 329.334071H165.999784a39.999948 39.999948 0 1 1 0-79.33323h125.33317a39.999948 39.999948 0 1 1 0 79.33323z"  horiz-adv-x="1024" />

    
    <glyph glyph-name="bianji" unicode="&#58934;" d="M330.72036 329.714232l-53.576377-194.462405a33.071838 33.071838 0 0 1 31.748965-41.670515h8.598677l193.800969 52.253503a8.598678 8.598678 0 0 1 5.95293 0l518.566414 515.25923a82.679594 82.679594 0 0 1 22.488849 58.867871 101.199823 101.199823 0 0 1-29.764654 70.773732l-48.946319 49.607757a101.199823 101.199823 0 0 1-70.773733 29.764653 82.679594 82.679594 0 0 1-59.529307-23.811723L330.72036 331.037106z m653.499511 382.310443l-51.592067-50.93063-83.34103 84.663904 50.93063 50.269193a23.811723 23.811723 0 0 0 32.4104 0l48.94632-48.946319a26.45747 26.45747 0 0 0 7.937241-18.52023 19.843103 19.843103 0 0 0-5.952931-13.890171z m-562.221239-390.909121L793.726087 692.843009l85.986777-84.663904L506.0011 234.46734zM353.870647 168.323665l27.118906 99.215513 71.43517-72.096606z m661.436751 336.671306a35.717585 35.717585 0 0 1-35.717584-35.717584v-482.187392a45.639136 45.639136 0 0 0-46.300573-45.639136H117.737726a45.639136 45.639136 0 0 0-45.639136 45.639136V774.199729a45.639136 45.639136 0 0 0 46.300573 45.639136h525.180781A35.717585 35.717585 0 0 1 645.564254 895.904092h-529.149401A111.782811 111.782811 0 0 1 0.001984 784.782717v-798.354159a111.782811 111.782811 0 0 1 111.121375-112.444248h826.134503a111.782811 111.782811 0 0 1 112.444247 111.121375V472.584571a35.717585 35.717585 0 0 1-35.717584 35.717584z m0 0"  horiz-adv-x="1058" />

    
    <glyph glyph-name="chexiao" unicode="&#58935;" d="M666.05357 599.400609h-9.560578V808.9366C656.492992 887.811365 611.876964 920.476672 557.700357 875.860643L41.429169 461.568949a99.58935 99.58935 0 0 1 0-159.342959l511.4909-410.30812c55.770036-44.616029 104.369638 0 104.369638 66.924043V178.735197h79.67148a537.782488 537.782488 0 0 0 498.743462-282.833753c20.714585-33.462021 42.225884-26.291588 42.225884 0-4.780289 332.23007-285.223897 705.092595-608.690104 705.092595z m0 0"  horiz-adv-x="1278" />

    
    <glyph glyph-name="shouqi" unicode="&#58936;" d="M1968.901521-37.433011L1068.194209 864.514945a106.695357 106.695357 0 0 1-151.358529 0L16.128368-37.433011a53.347678 53.347678 0 0 1 37.21931-90.566989h1878.334533a53.347678 53.347678 0 0 1 37.21931 90.566989z"  horiz-adv-x="1985" />

    
    <glyph glyph-name="zhiyudingceng" unicode="&#58937;" d="M917.12 896h-220.8a106.88 106.88 0 0 1-106.88-106.88 33.28 33.28 0 0 1 64 0 40.32 40.32 0 0 0 42.88 42.88h220.8a40.32 40.32 0 0 0 40.32-40.32v-223.36a40.32 40.32 0 0 0-40.32-40.32 33.28 33.28 0 0 1 0-64A106.88 106.88 0 0 1 1024 568.32V789.12A106.88 106.88 0 0 1 917.12 896zM401.28 12.16a33.28 33.28 0 0 1-33.28-33.28 40.32 40.32 0 0 0-40.32-40.32H106.88a40.32 40.32 0 0 0-42.88 40.32v220.8a40.32 40.32 0 0 0 40.32 40.32 33.28 33.28 0 0 1 0 64A106.88 106.88 0 0 1 0 199.68v-220.8A106.88 106.88 0 0 1 106.88-128h220.8a106.88 106.88 0 0 1 106.88 106.88 33.28 33.28 0 0 1-33.28 33.28zM778.24 736.64H245.76a86.4 86.4 0 0 1-86.4-86.4v-531.84a86.4 86.4 0 0 1 86.4-86.4h531.84a86.4 86.4 0 0 1 86.4 86.4V650.24a86.4 86.4 0 0 1-85.76 86.4z m19.84-618.24a20.48 20.48 0 0 0-19.84-19.84H245.76a20.48 20.48 0 0 0-19.84 19.84V650.24a20.48 20.48 0 0 0 19.84 19.84h531.84a20.48 20.48 0 0 0 19.84-19.84z"  horiz-adv-x="1024" />

    
    <glyph glyph-name="zhongzuo" unicode="&#58938;" d="M608.583093 599.452753C285.173753 599.452753 4.779448 226.65578 0-105.515882c0-26.286966 21.507518-33.456139 42.218461 0A537.687942 537.687942 0 0 0 540.077666 178.861296h79.657473v-221.447774c0-66.115702 48.591058-110.723887 104.351289-66.912277l511.400976 410.235985a99.571841 99.571841 0 0 1 0 159.314946L716.917256 875.864184c-54.167082 44.608185-98.775266 11.948621-98.775267-66.912277v-209.499154z m0 0"  horiz-adv-x="1275" />

    
    <glyph glyph-name="zhongmingming" unicode="&#58940;" d="M863.197275 794.294501a41.544797 41.544797 0 0 1-29.400933-12.143864L318.001704 266.355999a42.183948 42.183948 0 0 1 59.441018-59.441017l515.155487 515.155487a42.183948 42.183948 0 0 1 0 59.441018 41.544797 41.544797 0 0 1-29.400934 12.783014zM984.635914 888.888809a42.183948 42.183948 0 1 1-42.183948-72.863183 42.183948 42.183948 0 0 1 63.915072 36.431591 42.183948 42.183948 0 0 1-21.731124 36.431592zM856.805768 545.664868a42.183948 42.183948 0 0 1-41.544797-34.51414v-492.14606a63.915073 63.915073 0 0 0-63.915073-63.915073H158.214022a63.915073 63.915073 0 0 0-63.915073 63.915073V712.483208a63.915073 63.915073 0 0 0 63.915073 63.915073h523.464446a42.183948 42.183948 0 0 1 0 83.728745H162.688077A146.365517 146.365517 0 0 1 16.32256 712.483208v-694.117691A146.365517 146.365517 0 0 1 162.688077-128H783.303434c72.224032 0 113.76883 53.04951 113.76883 146.365517V500.285166a32.596687 32.596687 0 0 1 0 3.195754 42.183948 42.183948 0 0 1-40.266496 42.183948z"  horiz-adv-x="1024" />

    
    <glyph glyph-name="bangzhu2" unicode="&#58941;" d="M512 896a512 512 0 0 1-424.32-798.08 33.28 33.28 0 1 1 55.04 37.12A448 448 0 1 0 256 17.92a33.28 33.28 0 1 1-38.4-55.04A512 512 0 1 1 512 896z m-55.04-823.04a55.04 55.04 0 1 0 55.04-55.04 55.04 55.04 0 0 0-55.04 55.04z m55.04 128a36.48 36.48 0 0 0-36.48 36.48v64a222.72 222.72 0 0 0 85.76 142.08c29.44 29.44 60.16 60.16 60.16 84.48A110.08 110.08 0 0 1 512 640a107.52 107.52 0 0 1-109.44-109.44 36.48 36.48 0 1 0-72.96 0 183.04 183.04 0 0 0 365.44 0 208.64 208.64 0 0 0-81.92-138.88c-32-32-64-64-64-94.08v-64a36.48 36.48 0 0 0-36.48-36.48z m0 264.96"  horiz-adv-x="1024" />

    
    <glyph glyph-name="ziyuan" unicode="&#58942;" d="M360.9632 832H60.1632a60.16 60.16 0 0 1-60.16-58.24v-300.8a60.16 60.16 0 0 1 60.16-60.16h300.8a60.16 60.16 0 0 1 60.16 60.16v300.8A60.16 60.16 0 0 1 360.9632 832z m645.12-166.4L793.6032 878.08a60.16 60.16 0 0 1-85.12 0L496.6432 665.6a60.16 60.16 0 0 1 0-85.12l212.48-212.48a60.16 60.16 0 0 1 85.12 0l212.48 212.48a60.16 60.16 0 0 1 0 85.12zM360.9632 293.12H60.1632a60.16 60.16 0 0 1-60.16-60.16v-300.16a60.16 60.16 0 0 1 60.16-60.8h300.8a60.16 60.16 0 0 1 60.16 60.16v300.8a60.16 60.16 0 0 1-60.16 60.16z m540.8 0h-300.8a60.16 60.16 0 0 1-60.16-60.16v-300.16a60.16 60.16 0 0 1 60.16-60.16h300.16a60.16 60.16 0 0 1 60.16 60.16v300.16a60.16 60.16 0 0 1-60.16 60.16z m0 0"  horiz-adv-x="1024" />

    
    <glyph glyph-name="shujuyuan" unicode="&#58943;" d="M976.821135 720.692373a51.824517 51.824517 0 0 1 0 10.236942C978.100752 823.701599 774.001727 896 513.599522 896S45.899248 823.701599 45.899248 730.929315V64.248486c35.189487-115.805403 225.852527-191.942657 473.458554-191.942657a743.457892 743.457892 0 0 1 323.743282 63.980885 606.538797 606.538797 0 0 1 63.980885 37.108914l15.995222 12.796177L941.631648 0.2676a34.549678 34.549678 0 0 1 4.478662 48.625473 30.710825 30.710825 0 0 1-20.473884 11.51656 38.388531 38.388531 0 0 1-28.15159-7.677707l-11.516559-10.236941a63.980886 63.980886 0 0 0-15.995221-11.51656 287.913986 287.913986 0 0 0-40.307958-24.952545L813.669876 0.2676a658.363314 658.363314 0 0 0-293.672265-57.582797c-236.089468 0-383.885314 72.298401-405.638816 143.956993V205.006434a703.789743 703.789743 0 0 1 280.23628-81.895533 868.220619 868.220619 0 0 1 511.847085 79.976107v-46.066238a33.909869 33.909869 0 0 1 67.819739 0V713.014667a27.511781 27.511781 0 0 1 0 8.317515zM907.721778 256.191143a767.770629 767.770629 0 0 0-506.728615-89.57324c-149.075464 18.554457-255.923543 63.980886-287.913985 94.691711V422.541446a678.837197 678.837197 0 0 1 280.236279-83.175152 867.58081 867.58081 0 0 1 511.847086 80.615916z m0 217.535011A767.770629 767.770629 0 0 0 400.993163 384.152914c-148.435655 17.914648-255.923543 63.980886-287.913985 97.890755V643.91531a873.33909 873.33909 0 0 1 400.520344-78.05668 866.941001 866.941001 0 0 1 396.681492 77.416871z m-10.87675 238.648704a341.018121 341.018121 0 0 0-83.175152-36.469105 978.907551 978.907551 0 0 0-306.468442-42.227384 967.390992 967.390992 0 0 0-303.269399 42.227384 245.686601 245.686601 0 0 0-80.615916 41.587576 54.383753 54.383753 0 0 0-12.796177 12.156368 67.819739 67.819739 0 0 0 15.995222 14.075795 170.189156 170.189156 0 0 0 79.976107 35.189487 967.390992 967.390992 0 0 0 303.269398 42.227385 967.390992 967.390992 0 0 0 303.269398-42.227385 249.525454 249.525454 0 0 0 80.615916-39.02834c11.516559-8.957324 12.796177-12.796177 12.796177-12.796177s2.559235-3.838853-8.957324-12.156369zM830.944715 473.726154a33.909869 33.909869 0 1 1-17.274839 4.478662 33.909869 33.909869 0 0 1 17.274839-4.478662zM830.944715 256.191143a33.909869 33.909869 0 0 1 16.635031 63.980886 33.909869 33.909869 0 0 1-33.90987-58.862415 33.909869 33.909869 0 0 1 17.274839-5.118471zM813.669876 106.47587a33.909869 33.909869 0 1 1 33.90987 0 33.909869 33.909869 0 0 1-33.90987 0z"  horiz-adv-x="1024" />

    
    <glyph glyph-name="tianjia" unicode="&#58944;" d="M775.04 425.6H553.6V647.04a41.6 41.6 0 0 1-82.56 0v-221.44H248.96a41.6 41.6 0 0 1 0-82.56h221.44v-221.44a41.6 41.6 0 0 1 82.56 0V342.4h221.44a41.6 41.6 0 0 1 0 82.56zM512-128a512 512 0 1 0 512 512 512 512 0 0 0-512-512zM512 835.84A451.84 451.84 0 1 1 963.84 384 452.48 452.48 0 0 1 512 835.84z"  horiz-adv-x="1024" />

    
    <glyph glyph-name="xinxi" unicode="&#58945;" d="M512 896a512 512 0 0 1-424.32-798.08 33.28 33.28 0 1 1 55.04 37.12A448 448 0 1 0 256 17.92a33.28 33.28 0 1 1-38.4-55.04A512 512 0 1 1 512 896z m0-238.08a64 64 0 1 1 64-64 64 64 0 0 1-64 64z m0-192a55.68 55.68 0 0 1-55.68-55.68v-266.88a55.68 55.68 0 0 1 111.36 0V410.24A55.68 55.68 0 0 1 512 465.92z m0 0"  horiz-adv-x="1024" />

    
    <glyph glyph-name="shouqi1" unicode="&#58946;" d="M294.59904 887.68L759.87904 423.04a55.04 55.04 0 0 0 0-78.08L294.59904-119.68a27.52 27.52 0 0 0-46.72 19.2V868.48a27.52 27.52 0 0 0 46.72 19.2z"  horiz-adv-x="1024" />

    
    <glyph glyph-name="zhankai1" unicode="&#58947;" d="M1968.901521 805.433011L1068.194209-96.514945a106.695357 106.695357 0 0 0-151.358529 0L16.128368 805.433011A53.347678 53.347678 0 0 0 53.347678 896h1878.334533a53.347678 53.347678 0 0 0 37.21931-90.566989z"  horiz-adv-x="1985" />

    
    <glyph glyph-name="daohang-" unicode="&#58893;" d="M951 370.6c-11.7-11.7-30.7-11.7-42.4 0L546.7 732.5c-19.5 19.5-51.2 19.5-70.7 0L115.5 370.29999999999995c-11.7-11.7-30.7-11.7-42.4 0s-11.7 30.7 0 42.4L476 817.4c19.5 19.5 51.2 19.5 70.7 0L951 413c11.7-11.7 11.7-30.7 0-42.4zM832 224v-192c0-17.7-14.3-32-32-32H224c-17.7 0-32 14.3-32 32V224c0 17.7-14.3 32-32 32s-32-14.3-32-32v-256c0-17.7 14.3-32 32-32h704c17.7 0 32 14.3 32 32V224c0 17.7-14.3 32-32 32s-32-14.3-32-32z m-517.9-83.6l81 107.3c8.4 11.1 23.1 15.5 36.2 10.9l186.4-66a32 32 0 0 1 35.4 9.8L760.2 332c11.3 13.6 9.3 33.8-4.3 45-13.6 11.3-33.8 9.3-45-4.3l-79.7-96.5c-8.6-10.4-22.7-14.3-35.3-9.8l-188.4 66.7c-13.2 4.7-27.8 0.2-36.2-10.9L263 178.89999999999998c-10.6-14.1-7.8-34.2 6.3-44.8 14.1-10.6 34.2-7.8 44.8 6.3z"  horiz-adv-x="1024" />

    
    <glyph glyph-name="PPT" unicode="&#59016;" d="M182.9 830.5c-11.1 0-23-4.5-31.2-13.4s-13.4-20-13.4-31.2v-802c0-11.1 4.5-23 13.4-31.2 8.9-8.9 20-13.4 31.2-13.4h653.4c11.1 0 23 4.5 31.2 13.4 8.9 8.9 13.4 20 13.4 31.2V578L628.4 830.5H182.9z m0 0M880.9 578H673c-11.1 0-23 4.5-31.2 13.4-8.9 8.2-13.4 20-13.4 31.2V830.5L880.9 578z m0 0M378.3 533.1h189.1c75.6 0 99.7-50.7 99.7-104.9 0-51.6-30.1-104-98.8-104H442.7v-128.9h-64.5V533.1z m64.4-156.5h104c37 0 56.7 11.2 56.7 50.7 0 41.3-26.6 51.6-51.6 51.6H442.7v-102.3z"  horiz-adv-x="1024" />

    
    <glyph glyph-name="shiyan" unicode="&#58905;" d="M384 896h320c19.2 0 38.4-19.2 38.4-38.4s-19.2-38.4-38.4-38.4h-6.4v-313.6l300.8-524.8c19.2-32 6.4-76.8-25.6-96-19.2-12.8-32-12.8-44.8-12.8h-832c-38.4 0-70.4 32-70.4 70.4 0 12.8 0 25.6 6.4 32l300.8 518.4V819.2H320c-19.2 0-38.4 12.8-38.4 38.4 0 19.2 19.2 38.4 38.4 38.4h64zM268.8 70.4c-12.8 0-25.6-12.8-25.6-25.6s12.8-25.6 25.6-25.6 25.6 12.8 25.6 25.6c-6.4 12.8-12.8 19.2-25.6 25.6 0-6.4 0-6.4 0 0z m121.6 64c-12.8 0-25.6-12.8-25.6-25.6s12.8-25.6 25.6-25.6 25.6 12.8 25.6 25.6c-6.4 19.2-12.8 25.6-25.6 25.6z m-38.4 160c-12.8 0-25.6-12.8-25.6-25.6s12.8-25.6 25.6-25.6 25.6 12.8 25.6 25.6-12.8 25.6-25.6 25.6z m6.4-243.2c-19.2 0-38.4-19.2-38.4-38.4s19.2-38.4 38.4-38.4 38.4 19.2 38.4 38.4c0 25.6-12.8 38.4-38.4 38.4z m-51.2 153.6c-19.2 0-38.4-19.2-38.4-38.4s19.2-38.4 38.4-38.4 38.4 19.2 38.4 38.4-19.2 38.4-38.4 38.4z m51.2 185.6h313.6l-51.2 76.8c-6.4 6.4-6.4 19.2-6.4 25.6V819.2H409.6v-326.4c0-6.4 0-12.8-6.4-19.2l-44.8-83.2z m339.2-51.2H332.8l-224-390.4h812.8c-6.4 0-224 390.4-224 390.4z m-230.4-313.6h83.2c12.8 0 25.6 12.8 19.2 25.6 0 12.8-12.8 19.2-19.2 19.2H467.2c-12.8 0-25.6-6.4-25.6-19.2 0-12.8 6.4-25.6 25.6-25.6z m25.6 128h38.4c12.8 0 25.6 12.8 25.6 25.6s-12.8 25.6-25.6 25.6h-38.4c-12.8 0-25.6-12.8-25.6-25.6 0-19.2 12.8-25.6 25.6-25.6z m0 249.6h38.4c12.8 0 25.6 12.8 25.6 25.6s-12.8 25.6-25.6 25.6h-38.4c-12.8 0-25.6-12.8-25.6-25.6s12.8-25.6 25.6-25.6z m-25.6-128h83.2c19.2 0 25.6 12.8 25.6 25.6s-12.8 25.6-25.6 25.6H467.2c-12.8 0-19.2-12.8-19.2-25.6s6.4-25.6 19.2-25.6z m0 256h83.2c19.2 0 25.6 12.8 25.6 25.6S563.2 576 556.8 576H467.2c-12.8 0-25.6-6.4-25.6-19.2 0-12.8 6.4-25.6 25.6-25.6z"  horiz-adv-x="1024" />

    
    <glyph glyph-name="tupian1" unicode="&#59017;" d="M0 896h1024v-1024H0zM665.6 896l256-256v-716.8c0-28.16-23.04-51.2-51.2-51.2H153.6c-28.16 0-51.2 23.04-51.2 51.2V844.8c0 28.16 23.04 51.2 51.2 51.2h512z m7.68-307.2h-332.8c-10.24 0-17.92-2.56-23.04-10.24s-10.24-15.36-10.24-28.16v-332.8c0-10.24 2.56-20.48 10.24-28.16 7.68-7.68 15.36-10.24 25.6-10.24h335.36c5.12 0 10.24 0 15.36 2.56 5.12 2.56 7.68 5.12 12.8 7.68s5.12 7.68 7.68 12.8c2.56 5.12 2.56 7.68 2.56 12.8V542.72c0 12.8-2.56 25.6-10.24 33.28-5.12 7.68-17.92 12.8-33.28 12.8z m-7.68-64v-99.84c-20.48 0-38.4-5.12-53.76-10.24-15.36-5.12-28.16-12.8-40.96-23.04-12.8-7.68-23.04-17.92-33.28-28.16-10.24-10.24-20.48-17.92-30.72-28.16s-20.48-15.36-33.28-20.48c-12.8-5.12-25.6-7.68-40.96-7.68-10.24 0-17.92 2.56-28.16 5.12-7.68 2.56-15.36 7.68-23.04 10.24s-12.8 10.24-17.92 12.8c-5.12 5.12-7.68 10.24-10.24 12.8v174.08c0 2.56 0 7.68 2.56 10.24 2.56 2.56 5.12 5.12 7.68 5.12h281.6c2.56 0 5.12-2.56 7.68-5.12 12.8-2.56 12.8-5.12 12.8-7.68zM448 486.4c-5.12 0-10.24 0-15.36-2.56s-7.68-5.12-12.8-7.68-5.12-7.68-7.68-12.8c-2.56-5.12-2.56-10.24-2.56-15.36 0-5.12 0-10.24 2.56-15.36 2.56-5.12 5.12-7.68 7.68-12.8s7.68-5.12 12.8-7.68c5.12-2.56 10.24-2.56 15.36-2.56 10.24 0 20.48 2.56 28.16 10.24 7.68 7.68 10.24 15.36 10.24 28.16 0 5.12 0 10.24-2.56 15.36-2.56 5.12-5.12 7.68-7.68 12.8s-7.68 5.12-12.8 7.68c-5.12 2.56-10.24 2.56-15.36 2.56zM665.6 896l256-256H665.6z"  horiz-adv-x="1024" />

    
    <glyph glyph-name="word" unicode="&#59029;" d="M927.232-100.48c9.856 9.856 14.72 22.144 14.72 34.432v655.36L663.424 867.84h-491.52c-12.288 0-25.344-4.864-34.432-14.72-7.808-8.704-13.312-19.2-14.464-29.952v-894.08c1.152-10.752 5.888-21.632 14.464-29.568 9.856-9.856 22.144-14.72 34.432-14.72h720.896c12.288 0 25.344 4.864 34.432 14.72z m-262.4 220.032h-63.872l-71.552 276.608H527.36l-72.064-276.608h-64.384l-105.6 367.744H353.28l69.12-279.68h2.048l72.576 279.68H559.36l72.576-279.68h2.048l68.992 279.68h67.968l-106.112-367.744zM941.952 589.312H712.576c-12.288 0-25.344 4.864-34.432 14.72-9.856 8.96-14.72 22.144-14.72 34.432V867.84l278.528-278.528z"  horiz-adv-x="1024" />

    
    </font>
</defs>
</svg>
